# MagicaVoxel @ Ephtracy

# group
o 

# material
mtllib AlmacenCarne.mtl
usemtl palette

# normals
vn -1 0 0
vn 1 0 0
vn 0 0 1
vn 0 0 -1
vn 0 -1 0
vn 0 1 0

# texcoords
vt 0.205078 0.5
vt 0.373047 0.5
vt 0.419922 0.5
vt 0.958984 0.5
vt 0.966797 0.5
vt 0.978516 0.5

# verts
v -8.8 -2.8 8.8
v -8.8 -2.8 7.4
v -8.8 -2.8 -7.4
v -8.8 -2.8 -8.8
v -8.8 14.8 8.8
v -8.8 14.8 7.4
v -8.8 14.8 -7.4
v -8.8 14.8 -8.8
v 7.6 13.3 7.4
v 7.6 13.3 -7.4
v 7.6 14.8 7.4
v 7.6 14.8 -7.4
v -7.6 13.3 7.4
v -7.6 13.3 -7.4
v -7.6 14.8 7.4
v -7.6 14.8 -7.4
v 8.8 -2.8 8.8
v 8.8 -2.8 7.4
v 8.8 -2.8 -7.4
v 8.8 -2.8 -8.8
v 8.8 14.8 8.8
v 8.8 14.8 7.4
v 8.8 14.8 -7.4
v 8.8 14.8 -8.8
v -8.8 -2.8 8.8
v -8.8 14.8 8.8
v -7.5 -2.8 8.8
v -7.5 14.8 8.8
v 7.5 -2.8 8.8
v 7.5 14.8 8.8
v 8.8 -2.8 8.8
v 8.8 14.8 8.8
v -7.6 13.3 -7.4
v -7.6 14.8 -7.4
v -7.5 13.3 -7.4
v -7.5 14.8 -7.4
v 7.5 13.3 -7.4
v 7.5 14.8 -7.4
v 7.6 13.3 -7.4
v 7.6 14.8 -7.4
v -7.6 13.3 7.4
v -7.6 14.8 7.4
v -7.5 13.3 7.4
v -7.5 14.8 7.4
v 7.5 13.3 7.4
v 7.5 14.8 7.4
v 7.6 13.3 7.4
v 7.6 14.8 7.4
v -8.8 -2.8 -8.8
v -8.8 14.8 -8.8
v -7.5 -2.8 -8.8
v -7.5 14.8 -8.8
v -7.1 -0.9 -8.8
v -7.1 13.2 -8.8
v -6.3 8.1 -8.8
v -6.3 10 -8.8
v -6.2 7.8 -8.8
v -6.2 8.1 -8.8
v -6.2 10 -8.8
v -6.2 10.3 -8.8
v -6.1 7.5 -8.8
v -6.1 7.8 -8.8
v -6.1 10.3 -8.8
v -6.1 10.5 -8.8
v -6 7.3 -8.8
v -6 7.5 -8.8
v -6 10.5 -8.8
v -6 10.8 -8.8
v -5.9 7.1 -8.8
v -5.9 7.3 -8.8
v -5.9 10.8 -8.8
v -5.9 10.9 -8.8
v -5.8 7 -8.8
v -5.8 7.1 -8.8
v -5.8 10.9 -8.8
v -5.8 11 -8.8
v -5.7 6.8 -8.8
v -5.7 7 -8.8
v -5.7 11 -8.8
v -5.7 11.2 -8.8
v -5.6 6.7 -8.8
v -5.6 6.8 -8.8
v -5.6 11.2 -8.8
v -5.6 11.4 -8.8
v -5.5 6.4 -8.8
v -5.5 6.7 -8.8
v -5.4 6.3 -8.8
v -5.4 6.4 -8.8
v -5.4 11.4 -8.8
v -5.4 11.5 -8.8
v -5.3 6.1 -8.8
v -5.3 6.3 -8.8
v -5.3 11.5 -8.8
v -5.3 11.6 -8.8
v -5.1 6 -8.8
v -5.1 6.1 -8.8
v -5.1 11.6 -8.8
v -5.1 11.7 -8.8
v -5 5.9 -8.8
v -5 6 -8.8
v -4.9 5.8 -8.8
v -4.9 5.9 -8.8
v -4.8 11.7 -8.8
v -4.8 11.8 -8.8
v -4.7 5.7 -8.8
v -4.7 5.8 -8.8
v -4.6 11.8 -8.8
v -4.6 11.9 -8.8
v -4.5 5.6 -8.8
v -4.5 5.7 -8.8
v -4.3 5.5 -8.8
v -4.3 5.6 -8.8
v -4.3 11.9 -8.8
v -4.3 12 -8.8
v -4.1 5.4 -8.8
v -4.1 5.5 -8.8
v -3.9 5.3 -8.8
v -3.9 5.4 -8.8
v -3.8 12 -8.8
v -3.8 12.1 -8.8
v -3.6 5.2 -8.8
v -3.6 5.3 -8.8
v -3.3 5.1 -8.8
v -3.3 5.2 -8.8
v -3.3 12 -8.8
v -3.3 12.1 -8.8
v -2.9 5 -8.8
v -2.9 5.1 -8.8
v -2.4 4.9 -8.8
v -2.4 5 -8.8
v -2.3 11.9 -8.8
v -2.3 12 -8.8
v -2 4.8 -8.8
v -2 4.9 -8.8
v -1.8 11.8 -8.8
v -1.8 11.9 -8.8
v -1.5 4.7 -8.8
v -1.5 4.8 -8.8
v -1.2 4.6 -8.8
v -1.2 4.7 -8.8
v -1.2 11.7 -8.8
v -1.2 11.8 -8.8
v -0.8 4.5 -8.8
v -0.8 4.6 -8.8
v -0.8 11.6 -8.8
v -0.8 11.7 -8.8
v -0.6 4.4 -8.8
v -0.6 4.5 -8.8
v -0.400001 4.3 -8.8
v -0.400001 4.4 -8.8
v -0.400001 11.5 -8.8
v -0.400001 11.6 -8.8
v -0.200001 4.2 -8.8
v -0.200001 4.3 -8.8
v -0.1 11.4 -8.8
v -0.1 11.5 -8.8
v 0 4.1 -8.8
v 0 4.2 -8.8
v 0.2 11.2 -8.8
v 0.2 11.4 -8.8
v 0.299999 4 -8.8
v 0.299999 4.1 -8.8
v 0.5 3.9 -8.8
v 0.5 4 -8.8
v 0.599999 3.8 -8.8
v 0.599999 3.9 -8.8
v 0.599999 11.1 -8.8
v 0.599999 11.2 -8.8
v 0.7 11 -8.8
v 0.7 11.1 -8.8
v 0.799999 3.7 -8.8
v 0.799999 3.8 -8.8
v 0.9 3.6 -8.8
v 0.9 3.7 -8.8
v 1 10.9 -8.8
v 1 11 -8.8
v 1.1 3.5 -8.8
v 1.1 3.6 -8.8
v 1.2 3.4 -8.8
v 1.2 3.5 -8.8
v 1.2 10.8 -8.8
v 1.2 10.9 -8.8
v 1.4 3.3 -8.8
v 1.4 3.4 -8.8
v 1.4 10.7 -8.8
v 1.4 10.8 -8.8
v 1.5 3.2 -8.8
v 1.5 3.3 -8.8
v 1.5 10.6 -8.8
v 1.5 10.7 -8.8
v 1.7 3.1 -8.8
v 1.7 3.2 -8.8
v 1.7 10.5 -8.8
v 1.7 10.6 -8.8
v 1.8 3 -8.8
v 1.8 3.1 -8.8
v 1.8 10.4 -8.8
v 1.8 10.5 -8.8
v 1.9 2.9 -8.8
v 1.9 3 -8.8
v 2 2.7 -8.8
v 2 2.9 -8.8
v 2 10.2 -8.8
v 2 10.4 -8.8
v 2.2 2.6 -8.8
v 2.2 2.7 -8.8
v 2.2 10 -8.8
v 2.2 10.2 -8.8
v 2.3 2.3 -8.8
v 2.3 2.6 -8.8
v 2.3 9.9 -8.8
v 2.3 10 -8.8
v 2.4 1.8 -8.8
v 2.4 2.3 -8.8
v 2.4 9.8 -8.8
v 2.4 9.9 -8.8
v 2.5 0.6 -8.8
v 2.5 1.4 -8.8
v 2.5 1.6 -8.8
v 2.5 1.8 -8.8
v 2.5 9.7 -8.8
v 2.5 9.8 -8.8
v 2.6 0.4 -8.8
v 2.6 0.6 -8.8
v 2.6 1.4 -8.8
v 2.6 1.6 -8.8
v 2.6 9.6 -8.8
v 2.6 9.7 -8.8
v 2.7 0.3 -8.8
v 2.7 0.4 -8.8
v 2.7 9.5 -8.8
v 2.7 9.6 -8.8
v 2.8 0.2 -8.8
v 2.8 0.3 -8.8
v 2.8 9.3 -8.8
v 2.8 9.5 -8.8
v 2.9 0.1 -8.8
v 2.9 0.2 -8.8
v 2.9 9.2 -8.8
v 2.9 9.3 -8.8
v 3.1 9 -8.8
v 3.1 9.2 -8.8
v 3.2 8.9 -8.8
v 3.2 9 -8.8
v 3.3 8.7 -8.8
v 3.3 8.9 -8.8
v 3.4 8.6 -8.8
v 3.4 8.7 -8.8
v 3.5 8.5 -8.8
v 3.5 8.6 -8.8
v 3.6 8.3 -8.8
v 3.6 8.5 -8.8
v 3.7 2.38419e-007 -8.8
v 3.7 0.1 -8.8
v 3.7 1.5 -8.8
v 3.7 1.9 -8.8
v 3.7 8.2 -8.8
v 3.7 8.3 -8.8
v 3.8 1.4 -8.8
v 3.8 1.5 -8.8
v 3.8 1.9 -8.8
v 3.8 2 -8.8
v 3.8 8 -8.8
v 3.8 8.2 -8.8
v 3.9 1.3 -8.8
v 3.9 1.4 -8.8
v 3.9 1.6 -8.8
v 3.9 1.8 -8.8
v 3.9 2 -8.8
v 3.9 2.1 -8.8
v 4 1.5 -8.8
v 4 1.6 -8.8
v 4 1.8 -8.8
v 4 1.9 -8.8
v 4 7.8 -8.8
v 4 8 -8.8
v 4.1 7.7 -8.8
v 4.1 7.8 -8.8
v 4.2 1.5 -8.8
v 4.2 1.6 -8.8
v 4.2 1.8 -8.8
v 4.2 1.9 -8.8
v 4.2 7.6 -8.8
v 4.2 7.7 -8.8
v 4.3 1.3 -8.8
v 4.3 1.4 -8.8
v 4.3 1.6 -8.8
v 4.3 1.8 -8.8
v 4.3 2 -8.8
v 4.3 2.1 -8.8
v 4.3 7.3 -8.8
v 4.3 7.6 -8.8
v 4.4 1.4 -8.8
v 4.4 1.5 -8.8
v 4.4 1.9 -8.8
v 4.4 2 -8.8
v 4.4 7.2 -8.8
v 4.4 7.3 -8.8
v 4.5 1.5 -8.8
v 4.5 1.9 -8.8
v 4.5 7 -8.8
v 4.5 7.2 -8.8
v 4.6 6.8 -8.8
v 4.6 7 -8.8
v 4.7 6.6 -8.8
v 4.7 6.8 -8.8
v 4.8 2.38419e-007 -8.8
v 4.8 0.1 -8.8
v 4.8 6.4 -8.8
v 4.8 6.6 -8.8
v 4.9 6.2 -8.8
v 4.9 6.4 -8.8
v 5 5.8 -8.8
v 5 6.2 -8.8
v 5.1 0.1 -8.8
v 5.1 0.2 -8.8
v 5.1 5.7 -8.8
v 5.1 5.8 -8.8
v 5.2 0.2 -8.8
v 5.2 0.4 -8.8
v 5.2 5.3 -8.8
v 5.2 5.7 -8.8
v 5.3 0.4 -8.8
v 5.3 0.6 -8.8
v 5.3 5 -8.8
v 5.3 5.3 -8.8
v 5.4 0.6 -8.8
v 5.4 0.7 -8.8
v 5.4 4.6 -8.8
v 5.4 5 -8.8
v 5.5 0.7 -8.8
v 5.5 0.9 -8.8
v 5.5 3.4 -8.8
v 5.5 4.6 -8.8
v 5.6 0.9 -8.8
v 5.6 1.3 -8.8
v 5.6 2.8 -8.8
v 5.6 3.4 -8.8
v 5.7 1.3 -8.8
v 5.7 2.8 -8.8
v 7.1 -0.9 -8.8
v 7.1 13.2 -8.8
v 7.5 -2.8 -8.8
v 7.5 14.8 -8.8
v 8.8 -2.8 -8.8
v 8.8 14.8 -8.8
v -8.8 -2.8 8.8
v -7.5 -2.8 8.8
v 7.5 -2.8 8.8
v 8.8 -2.8 8.8
v -8.7 -2.8 8.7
v -7.5 -2.8 8.7
v 7.5 -2.8 8.7
v 8.7 -2.8 8.7
v -8.8 -2.8 7.4
v -8.7 -2.8 7.4
v 8.7 -2.8 7.4
v 8.8 -2.8 7.4
v -8.8 -2.8 -7.4
v -8.7 -2.8 -7.4
v 8.7 -2.8 -7.4
v 8.8 -2.8 -7.4
v -8.7 -2.8 -8.7
v -7.5 -2.8 -8.7
v 7.5 -2.8 -8.7
v 8.7 -2.8 -8.7
v -8.8 -2.8 -8.8
v -7.5 -2.8 -8.8
v 7.5 -2.8 -8.8
v 8.8 -2.8 -8.8
v -7.6 13.3 7.4
v -7.5 13.3 7.4
v 7.5 13.3 7.4
v 7.6 13.3 7.4
v -7.6 13.3 -7.4
v -7.5 13.3 -7.4
v 7.5 13.3 -7.4
v 7.6 13.3 -7.4
v -8.8 14.8 8.8
v -7.5 14.8 8.8
v 7.5 14.8 8.8
v 8.8 14.8 8.8
v -8.8 14.8 7.4
v -7.6 14.8 7.4
v -7.5 14.8 7.4
v 7.5 14.8 7.4
v 7.6 14.8 7.4
v 8.8 14.8 7.4
v -8.8 14.8 -7.4
v -7.6 14.8 -7.4
v -7.5 14.8 -7.4
v 7.5 14.8 -7.4
v 7.6 14.8 -7.4
v 8.8 14.8 -7.4
v -8.8 14.8 -8.8
v -7.5 14.8 -8.8
v 7.5 14.8 -8.8
v 8.8 14.8 -8.8

# faces
f 5/2/1 2/2/1 1/2/1
f 6/1/1 3/1/1 2/1/1
f 6/2/1 2/2/1 5/2/1
f 7/2/1 4/2/1 3/2/1
f 7/1/1 3/1/1 6/1/1
f 8/2/1 4/2/1 7/2/1
f 11/1/1 10/1/1 9/1/1
f 12/1/1 10/1/1 11/1/1
f 13/1/2 14/1/2 15/1/2
f 15/1/2 14/1/2 16/1/2
f 17/2/2 18/2/2 21/2/2
f 18/1/2 19/1/2 22/1/2
f 21/2/2 18/2/2 22/2/2
f 19/2/2 20/2/2 23/2/2
f 22/1/2 19/1/2 23/1/2
f 23/2/2 20/2/2 24/2/2
f 27/2/3 26/2/3 25/2/3
f 28/2/3 26/2/3 27/2/3
f 29/1/3 28/1/3 27/1/3
f 30/1/3 28/1/3 29/1/3
f 31/2/3 30/2/3 29/2/3
f 32/2/3 30/2/3 31/2/3
f 35/2/3 34/2/3 33/2/3
f 36/2/3 34/2/3 35/2/3
f 37/1/3 36/1/3 35/1/3
f 38/1/3 36/1/3 37/1/3
f 39/2/3 38/2/3 37/2/3
f 40/2/3 38/2/3 39/2/3
f 41/2/4 42/2/4 43/2/4
f 43/2/4 42/2/4 44/2/4
f 43/1/4 44/1/4 45/1/4
f 45/1/4 44/1/4 46/1/4
f 45/2/4 46/2/4 47/2/4
f 47/2/4 46/2/4 48/2/4
f 49/2/4 50/2/4 51/2/4
f 51/2/4 50/2/4 52/2/4
f 51/1/4 52/1/4 53/1/4
f 53/1/4 52/1/4 54/1/4
f 53/4/4 54/4/4 55/4/4
f 55/4/4 54/4/4 56/4/4
f 53/4/4 55/4/4 57/4/4
f 55/3/4 56/3/4 58/3/4
f 57/4/4 55/4/4 58/4/4
f 56/4/4 54/4/4 59/4/4
f 58/3/4 56/3/4 59/3/4
f 59/4/4 54/4/4 60/4/4
f 53/4/4 57/4/4 61/4/4
f 57/3/4 58/3/4 62/3/4
f 61/4/4 57/4/4 62/4/4
f 58/3/4 59/3/4 62/3/4
f 59/3/4 60/3/4 62/3/4
f 60/4/4 54/4/4 63/4/4
f 62/3/4 60/3/4 63/3/4
f 63/4/4 54/4/4 64/4/4
f 53/4/4 61/4/4 65/4/4
f 61/3/4 62/3/4 66/3/4
f 65/4/4 61/4/4 66/4/4
f 62/3/4 63/3/4 66/3/4
f 63/3/4 64/3/4 66/3/4
f 64/4/4 54/4/4 67/4/4
f 66/3/4 64/3/4 67/3/4
f 67/4/4 54/4/4 68/4/4
f 53/4/4 65/4/4 69/4/4
f 65/3/4 66/3/4 70/3/4
f 69/4/4 65/4/4 70/4/4
f 66/3/4 67/3/4 70/3/4
f 67/3/4 68/3/4 70/3/4
f 68/4/4 54/4/4 71/4/4
f 70/3/4 68/3/4 71/3/4
f 71/4/4 54/4/4 72/4/4
f 53/4/4 69/4/4 73/4/4
f 69/3/4 70/3/4 74/3/4
f 73/4/4 69/4/4 74/4/4
f 70/3/4 71/3/4 74/3/4
f 71/3/4 72/3/4 74/3/4
f 72/4/4 54/4/4 75/4/4
f 74/3/4 72/3/4 75/3/4
f 75/4/4 54/4/4 76/4/4
f 53/4/4 73/4/4 77/4/4
f 73/3/4 74/3/4 78/3/4
f 77/4/4 73/4/4 78/4/4
f 74/3/4 75/3/4 78/3/4
f 75/3/4 76/3/4 78/3/4
f 76/4/4 54/4/4 79/4/4
f 78/3/4 76/3/4 79/3/4
f 79/4/4 54/4/4 80/4/4
f 53/4/4 77/4/4 81/4/4
f 77/3/4 78/3/4 82/3/4
f 81/4/4 77/4/4 82/4/4
f 78/3/4 79/3/4 82/3/4
f 79/3/4 80/3/4 82/3/4
f 80/4/4 54/4/4 83/4/4
f 82/3/4 80/3/4 83/3/4
f 83/4/4 54/4/4 84/4/4
f 53/4/4 81/4/4 85/4/4
f 81/3/4 82/3/4 86/3/4
f 85/4/4 81/4/4 86/4/4
f 82/3/4 83/3/4 86/3/4
f 83/3/4 84/3/4 86/3/4
f 53/4/4 85/4/4 87/4/4
f 85/3/4 86/3/4 88/3/4
f 87/4/4 85/4/4 88/4/4
f 86/3/4 84/3/4 89/3/4
f 88/3/4 86/3/4 89/3/4
f 84/4/4 54/4/4 89/4/4
f 89/4/4 54/4/4 90/4/4
f 53/4/4 87/4/4 91/4/4
f 87/3/4 88/3/4 92/3/4
f 91/4/4 87/4/4 92/4/4
f 88/3/4 89/3/4 92/3/4
f 89/3/4 90/3/4 92/3/4
f 90/4/4 54/4/4 93/4/4
f 92/3/4 90/3/4 93/3/4
f 93/4/4 54/4/4 94/4/4
f 53/4/4 91/4/4 95/4/4
f 91/3/4 92/3/4 96/3/4
f 95/4/4 91/4/4 96/4/4
f 92/3/4 93/3/4 96/3/4
f 93/3/4 94/3/4 96/3/4
f 94/4/4 54/4/4 97/4/4
f 96/3/4 94/3/4 97/3/4
f 97/4/4 54/4/4 98/4/4
f 53/4/4 95/4/4 99/4/4
f 95/3/4 96/3/4 100/3/4
f 99/4/4 95/4/4 100/4/4
f 96/3/4 97/3/4 100/3/4
f 97/3/4 98/3/4 100/3/4
f 53/4/4 99/4/4 101/4/4
f 99/3/4 100/3/4 102/3/4
f 101/4/4 99/4/4 102/4/4
f 100/3/4 98/3/4 103/3/4
f 102/3/4 100/3/4 103/3/4
f 101/3/4 102/3/4 103/3/4
f 98/4/4 54/4/4 103/4/4
f 103/4/4 54/4/4 104/4/4
f 53/4/4 101/4/4 105/4/4
f 101/3/4 103/3/4 106/3/4
f 105/4/4 101/4/4 106/4/4
f 103/3/4 104/3/4 106/3/4
f 104/4/4 54/4/4 107/4/4
f 106/3/4 104/3/4 107/3/4
f 105/3/4 106/3/4 107/3/4
f 107/4/4 54/4/4 108/4/4
f 53/4/4 105/4/4 109/4/4
f 105/3/4 107/3/4 110/3/4
f 109/4/4 105/4/4 110/4/4
f 107/3/4 108/3/4 110/3/4
f 53/4/4 109/4/4 111/4/4
f 109/3/4 110/3/4 112/3/4
f 111/4/4 109/4/4 112/4/4
f 108/4/4 54/4/4 113/4/4
f 112/3/4 110/3/4 113/3/4
f 110/3/4 108/3/4 113/3/4
f 113/4/4 54/4/4 114/4/4
f 53/4/4 111/4/4 115/4/4
f 111/3/4 112/3/4 116/3/4
f 115/4/4 111/4/4 116/4/4
f 112/3/4 113/3/4 116/3/4
f 113/3/4 114/3/4 116/3/4
f 53/4/4 115/4/4 117/4/4
f 115/3/4 116/3/4 118/3/4
f 117/4/4 115/4/4 118/4/4
f 116/3/4 114/3/4 119/3/4
f 118/3/4 116/3/4 119/3/4
f 117/3/4 118/3/4 119/3/4
f 114/4/4 54/4/4 119/4/4
f 119/4/4 54/4/4 120/4/4
f 53/4/4 117/4/4 121/4/4
f 117/3/4 119/3/4 122/3/4
f 121/4/4 117/4/4 122/4/4
f 119/3/4 120/3/4 122/3/4
f 53/4/4 121/4/4 123/4/4
f 121/3/4 122/3/4 124/3/4
f 123/4/4 121/4/4 124/4/4
f 122/3/4 120/3/4 125/3/4
f 124/3/4 122/3/4 125/3/4
f 120/4/4 54/4/4 126/4/4
f 125/3/4 120/3/4 126/3/4
f 53/4/4 123/4/4 127/4/4
f 124/3/4 125/3/4 128/3/4
f 127/4/4 123/4/4 128/4/4
f 123/3/4 124/3/4 128/3/4
f 53/4/4 127/4/4 129/4/4
f 127/3/4 128/3/4 130/3/4
f 129/4/4 127/4/4 130/4/4
f 128/3/4 125/3/4 131/3/4
f 130/3/4 128/3/4 131/3/4
f 129/3/4 130/3/4 131/3/4
f 125/4/4 126/4/4 132/4/4
f 131/3/4 125/3/4 132/3/4
f 53/4/4 129/4/4 133/4/4
f 129/3/4 131/3/4 134/3/4
f 133/4/4 129/4/4 134/4/4
f 133/3/4 134/3/4 135/3/4
f 134/3/4 131/3/4 135/3/4
f 131/4/4 132/4/4 136/4/4
f 135/3/4 131/3/4 136/3/4
f 53/4/4 133/4/4 137/4/4
f 133/3/4 135/3/4 138/3/4
f 137/4/4 133/4/4 138/4/4
f 53/4/4 137/4/4 139/4/4
f 137/3/4 138/3/4 140/3/4
f 139/4/4 137/4/4 140/4/4
f 138/3/4 135/3/4 141/3/4
f 140/3/4 138/3/4 141/3/4
f 135/4/4 136/4/4 142/4/4
f 141/3/4 135/3/4 142/3/4
f 53/4/4 139/4/4 143/4/4
f 139/3/4 140/3/4 144/3/4
f 143/4/4 139/4/4 144/4/4
f 140/3/4 141/3/4 144/3/4
f 144/3/4 141/3/4 145/3/4
f 141/4/4 142/4/4 146/4/4
f 145/3/4 141/3/4 146/3/4
f 53/4/4 143/4/4 147/4/4
f 144/3/4 145/3/4 148/3/4
f 147/4/4 143/4/4 148/4/4
f 143/3/4 144/3/4 148/3/4
f 53/4/4 147/4/4 149/4/4
f 147/3/4 148/3/4 150/3/4
f 149/4/4 147/4/4 150/4/4
f 148/3/4 145/3/4 151/3/4
f 150/3/4 148/3/4 151/3/4
f 145/4/4 146/4/4 152/4/4
f 151/3/4 145/3/4 152/3/4
f 53/4/4 149/4/4 153/4/4
f 149/3/4 150/3/4 154/3/4
f 153/4/4 149/4/4 154/4/4
f 150/3/4 151/3/4 154/3/4
f 153/3/4 154/3/4 155/3/4
f 154/3/4 151/3/4 155/3/4
f 151/4/4 152/4/4 156/4/4
f 155/3/4 151/3/4 156/3/4
f 53/4/4 153/4/4 157/4/4
f 153/3/4 155/3/4 158/3/4
f 157/4/4 153/4/4 158/4/4
f 157/3/4 158/3/4 159/3/4
f 158/3/4 155/3/4 159/3/4
f 155/4/4 156/4/4 160/4/4
f 159/3/4 155/3/4 160/3/4
f 53/4/4 157/4/4 161/4/4
f 157/3/4 159/3/4 162/3/4
f 161/4/4 157/4/4 162/4/4
f 53/4/4 161/4/4 163/4/4
f 161/3/4 162/3/4 164/3/4
f 163/4/4 161/4/4 164/4/4
f 53/4/4 163/4/4 165/4/4
f 163/3/4 164/3/4 166/3/4
f 165/4/4 163/4/4 166/4/4
f 162/3/4 159/3/4 167/3/4
f 166/3/4 164/3/4 167/3/4
f 164/3/4 162/3/4 167/3/4
f 159/4/4 160/4/4 168/4/4
f 167/3/4 159/3/4 168/3/4
f 165/3/4 166/3/4 169/3/4
f 166/3/4 167/3/4 169/3/4
f 167/4/4 168/4/4 170/4/4
f 169/3/4 167/3/4 170/3/4
f 53/4/4 165/4/4 171/4/4
f 165/3/4 169/3/4 172/3/4
f 171/4/4 165/4/4 172/4/4
f 53/4/4 171/4/4 173/4/4
f 171/3/4 172/3/4 174/3/4
f 173/4/4 171/4/4 174/4/4
f 172/3/4 169/3/4 175/3/4
f 174/3/4 172/3/4 175/3/4
f 173/3/4 174/3/4 175/3/4
f 169/4/4 170/4/4 176/4/4
f 175/3/4 169/3/4 176/3/4
f 53/4/4 173/4/4 177/4/4
f 173/3/4 175/3/4 178/3/4
f 177/4/4 173/4/4 178/4/4
f 53/4/4 177/4/4 179/4/4
f 177/3/4 178/3/4 180/3/4
f 179/4/4 177/4/4 180/4/4
f 178/3/4 175/3/4 181/3/4
f 180/3/4 178/3/4 181/3/4
f 175/4/4 176/4/4 182/4/4
f 181/3/4 175/3/4 182/3/4
f 53/4/4 179/4/4 183/4/4
f 179/3/4 180/3/4 184/3/4
f 183/4/4 179/4/4 184/4/4
f 180/3/4 181/3/4 184/3/4
f 184/3/4 181/3/4 185/3/4
f 181/4/4 182/4/4 186/4/4
f 185/3/4 181/3/4 186/3/4
f 53/4/4 183/4/4 187/4/4
f 184/3/4 185/3/4 188/3/4
f 187/4/4 183/4/4 188/4/4
f 183/3/4 184/3/4 188/3/4
f 188/3/4 185/3/4 189/3/4
f 185/4/4 186/4/4 190/4/4
f 189/3/4 185/3/4 190/3/4
f 53/4/4 187/4/4 191/4/4
f 188/3/4 189/3/4 192/3/4
f 191/4/4 187/4/4 192/4/4
f 187/3/4 188/3/4 192/3/4
f 192/3/4 189/3/4 193/3/4
f 189/4/4 190/4/4 194/4/4
f 193/3/4 189/3/4 194/3/4
f 53/4/4 191/4/4 195/4/4
f 192/3/4 193/3/4 196/3/4
f 195/4/4 191/4/4 196/4/4
f 191/3/4 192/3/4 196/3/4
f 196/3/4 193/3/4 197/3/4
f 193/4/4 194/4/4 198/4/4
f 197/3/4 193/3/4 198/3/4
f 53/4/4 195/4/4 199/4/4
f 196/3/4 197/3/4 200/3/4
f 199/4/4 195/4/4 200/4/4
f 195/3/4 196/3/4 200/3/4
f 53/4/4 199/4/4 201/4/4
f 199/3/4 200/3/4 202/3/4
f 201/4/4 199/4/4 202/4/4
f 200/3/4 197/3/4 203/3/4
f 202/3/4 200/3/4 203/3/4
f 197/4/4 198/4/4 204/4/4
f 203/3/4 197/3/4 204/3/4
f 53/4/4 201/4/4 205/4/4
f 201/3/4 202/3/4 206/3/4
f 205/4/4 201/4/4 206/4/4
f 202/3/4 203/3/4 206/3/4
f 206/3/4 203/3/4 207/3/4
f 203/4/4 204/4/4 208/4/4
f 207/3/4 203/3/4 208/3/4
f 53/4/4 205/4/4 209/4/4
f 206/3/4 207/3/4 210/3/4
f 209/4/4 205/4/4 210/4/4
f 205/3/4 206/3/4 210/3/4
f 210/3/4 207/3/4 211/3/4
f 207/4/4 208/4/4 212/4/4
f 211/3/4 207/3/4 212/3/4
f 53/4/4 209/4/4 213/4/4
f 210/3/4 211/3/4 214/3/4
f 213/4/4 209/4/4 214/4/4
f 209/3/4 210/3/4 214/3/4
f 214/3/4 211/3/4 215/3/4
f 211/4/4 212/4/4 216/4/4
f 215/3/4 211/3/4 216/3/4
f 53/4/4 213/4/4 217/4/4
f 217/4/4 213/4/4 218/4/4
f 218/4/4 213/4/4 219/4/4
f 214/3/4 215/3/4 220/3/4
f 219/4/4 213/4/4 220/4/4
f 213/3/4 214/3/4 220/3/4
f 220/3/4 215/3/4 221/3/4
f 215/4/4 216/4/4 222/4/4
f 221/3/4 215/3/4 222/3/4
f 53/4/4 217/4/4 223/4/4
f 217/3/4 218/3/4 224/3/4
f 223/4/4 217/4/4 224/4/4
f 218/4/4 219/4/4 225/4/4
f 224/3/4 218/3/4 225/3/4
f 220/3/4 221/3/4 226/3/4
f 225/4/4 219/4/4 226/4/4
f 219/3/4 220/3/4 226/3/4
f 226/3/4 221/3/4 227/3/4
f 221/4/4 222/4/4 228/4/4
f 227/3/4 221/3/4 228/3/4
f 53/4/4 223/4/4 229/4/4
f 223/3/4 224/3/4 230/3/4
f 229/4/4 223/4/4 230/4/4
f 224/3/4 225/3/4 230/3/4
f 226/3/4 227/3/4 230/3/4
f 225/3/4 226/3/4 230/3/4
f 230/3/4 227/3/4 231/3/4
f 227/4/4 228/4/4 232/4/4
f 231/3/4 227/3/4 232/3/4
f 53/4/4 229/4/4 233/4/4
f 230/3/4 231/3/4 234/3/4
f 233/4/4 229/4/4 234/4/4
f 229/3/4 230/3/4 234/3/4
f 234/3/4 231/3/4 235/3/4
f 231/4/4 232/4/4 236/4/4
f 235/3/4 231/3/4 236/3/4
f 53/4/4 233/4/4 237/4/4
f 234/3/4 235/3/4 238/3/4
f 237/4/4 233/4/4 238/4/4
f 233/3/4 234/3/4 238/3/4
f 238/3/4 235/3/4 239/3/4
f 235/4/4 236/4/4 240/4/4
f 239/3/4 235/3/4 240/3/4
f 238/3/4 239/3/4 241/3/4
f 237/3/4 238/3/4 241/3/4
f 239/4/4 240/4/4 242/4/4
f 241/3/4 239/3/4 242/3/4
f 237/3/4 241/3/4 243/3/4
f 241/4/4 242/4/4 244/4/4
f 243/3/4 241/3/4 244/3/4
f 237/3/4 243/3/4 245/3/4
f 243/4/4 244/4/4 246/4/4
f 245/3/4 243/3/4 246/3/4
f 237/3/4 245/3/4 247/3/4
f 245/4/4 246/4/4 248/4/4
f 247/3/4 245/3/4 248/3/4
f 237/3/4 247/3/4 249/3/4
f 247/4/4 248/4/4 250/4/4
f 249/3/4 247/3/4 250/3/4
f 237/3/4 249/3/4 251/3/4
f 249/4/4 250/4/4 252/4/4
f 251/3/4 249/3/4 252/3/4
f 53/4/4 237/4/4 253/4/4
f 237/3/4 251/3/4 254/3/4
f 253/4/4 237/4/4 254/4/4
f 254/3/4 251/3/4 255/3/4
f 255/3/4 251/3/4 256/3/4
f 256/3/4 251/3/4 257/3/4
f 251/4/4 252/4/4 258/4/4
f 257/3/4 251/3/4 258/3/4
f 253/3/4 254/3/4 259/3/4
f 254/3/4 255/3/4 259/3/4
f 255/4/4 256/4/4 260/4/4
f 259/3/4 255/3/4 260/3/4
f 256/3/4 257/3/4 261/3/4
f 260/4/4 256/4/4 261/4/4
f 261/3/4 257/3/4 262/3/4
f 262/3/4 257/3/4 263/3/4
f 257/4/4 258/4/4 264/4/4
f 263/3/4 257/3/4 264/3/4
f 253/3/4 259/3/4 265/3/4
f 259/4/4 260/4/4 266/4/4
f 265/3/4 259/3/4 266/3/4
f 260/4/4 261/4/4 266/4/4
f 261/4/4 262/4/4 266/4/4
f 266/4/4 262/4/4 267/4/4
f 267/4/4 262/4/4 268/4/4
f 262/3/4 263/3/4 269/3/4
f 268/4/4 262/4/4 269/4/4
f 269/3/4 263/3/4 270/3/4
f 265/4/4 266/4/4 271/4/4
f 266/4/4 267/4/4 271/4/4
f 267/5/4 268/5/4 272/5/4
f 271/4/4 267/4/4 272/4/4
f 269/4/4 270/4/4 273/4/4
f 272/5/4 268/5/4 273/5/4
f 268/4/4 269/4/4 273/4/4
f 273/4/4 270/4/4 274/4/4
f 270/3/4 263/3/4 275/3/4
f 263/4/4 264/4/4 276/4/4
f 275/3/4 263/3/4 276/3/4
f 270/3/4 275/3/4 277/3/4
f 275/4/4 276/4/4 278/4/4
f 277/3/4 275/3/4 278/3/4
f 265/4/4 271/4/4 279/4/4
f 271/5/4 272/5/4 279/5/4
f 272/5/4 273/5/4 279/5/4
f 273/5/4 274/5/4 279/5/4
f 279/5/4 274/5/4 280/5/4
f 280/5/4 274/5/4 281/5/4
f 274/4/4 270/4/4 282/4/4
f 281/5/4 274/5/4 282/5/4
f 270/3/4 277/3/4 283/3/4
f 277/4/4 278/4/4 284/4/4
f 283/3/4 277/3/4 284/3/4
f 253/3/4 265/3/4 285/3/4
f 265/4/4 279/4/4 285/4/4
f 279/4/4 280/4/4 285/4/4
f 285/4/4 280/4/4 286/4/4
f 280/5/4 281/5/4 287/5/4
f 286/4/4 280/4/4 287/4/4
f 281/4/4 282/4/4 288/4/4
f 287/5/4 281/5/4 288/5/4
f 282/4/4 270/4/4 289/4/4
f 288/4/4 282/4/4 289/4/4
f 270/3/4 283/3/4 290/3/4
f 289/4/4 270/4/4 290/4/4
f 290/3/4 283/3/4 291/3/4
f 283/4/4 284/4/4 292/4/4
f 291/3/4 283/3/4 292/3/4
f 285/3/4 286/3/4 293/3/4
f 288/4/4 289/4/4 293/4/4
f 287/4/4 288/4/4 293/4/4
f 286/4/4 287/4/4 293/4/4
f 293/4/4 289/4/4 294/4/4
f 294/4/4 289/4/4 295/4/4
f 289/3/4 290/3/4 296/3/4
f 295/4/4 289/4/4 296/4/4
f 290/3/4 291/3/4 296/3/4
f 296/3/4 291/3/4 297/3/4
f 291/4/4 292/4/4 298/4/4
f 297/3/4 291/3/4 298/3/4
f 294/4/4 295/4/4 299/4/4
f 293/3/4 294/3/4 299/3/4
f 296/3/4 297/3/4 300/3/4
f 299/4/4 295/4/4 300/4/4
f 295/3/4 296/3/4 300/3/4
f 300/3/4 297/3/4 301/3/4
f 297/4/4 298/4/4 302/4/4
f 301/3/4 297/3/4 302/3/4
f 300/3/4 301/3/4 303/3/4
f 299/3/4 300/3/4 303/3/4
f 301/4/4 302/4/4 304/4/4
f 303/3/4 301/3/4 304/3/4
f 299/3/4 303/3/4 305/3/4
f 303/4/4 304/4/4 306/4/4
f 305/3/4 303/3/4 306/3/4
f 53/4/4 253/4/4 307/4/4
f 293/3/4 299/3/4 307/3/4
f 253/3/4 285/3/4 307/3/4
f 299/3/4 305/3/4 307/3/4
f 285/3/4 293/3/4 307/3/4
f 307/3/4 305/3/4 308/3/4
f 308/3/4 305/3/4 309/3/4
f 305/4/4 306/4/4 310/4/4
f 309/3/4 305/3/4 310/3/4
f 308/3/4 309/3/4 311/3/4
f 309/4/4 310/4/4 312/4/4
f 311/3/4 309/3/4 312/3/4
f 308/3/4 311/3/4 313/3/4
f 311/4/4 312/4/4 314/4/4
f 313/3/4 311/3/4 314/3/4
f 307/4/4 308/4/4 315/4/4
f 308/3/4 313/3/4 315/3/4
f 315/3/4 313/3/4 316/3/4
f 316/3/4 313/3/4 317/3/4
f 313/4/4 314/4/4 318/4/4
f 317/3/4 313/3/4 318/3/4
f 316/3/4 317/3/4 319/3/4
f 315/4/4 316/4/4 319/4/4
f 319/3/4 317/3/4 320/3/4
f 320/3/4 317/3/4 321/3/4
f 317/4/4 318/4/4 322/4/4
f 321/3/4 317/3/4 322/3/4
f 320/3/4 321/3/4 323/3/4
f 319/4/4 320/4/4 323/4/4
f 323/3/4 321/3/4 324/3/4
f 324/3/4 321/3/4 325/3/4
f 321/4/4 322/4/4 326/4/4
f 325/3/4 321/3/4 326/3/4
f 324/3/4 325/3/4 327/3/4
f 323/4/4 324/4/4 327/4/4
f 327/3/4 325/3/4 328/3/4
f 328/3/4 325/3/4 329/3/4
f 325/4/4 326/4/4 330/4/4
f 329/3/4 325/3/4 330/3/4
f 328/3/4 329/3/4 331/3/4
f 327/4/4 328/4/4 331/4/4
f 331/3/4 329/3/4 332/3/4
f 332/3/4 329/3/4 333/3/4
f 329/4/4 330/4/4 334/4/4
f 333/3/4 329/3/4 334/3/4
f 332/3/4 333/3/4 335/3/4
f 331/4/4 332/4/4 335/4/4
f 335/3/4 333/3/4 336/3/4
f 336/3/4 333/3/4 337/3/4
f 333/4/4 334/4/4 338/4/4
f 337/3/4 333/3/4 338/3/4
f 336/3/4 337/3/4 339/3/4
f 335/4/4 336/4/4 339/4/4
f 337/4/4 338/4/4 340/4/4
f 339/3/4 337/3/4 340/3/4
f 51/1/4 53/1/4 341/1/4
f 53/4/4 307/4/4 341/4/4
f 339/4/4 340/4/4 341/4/4
f 335/4/4 339/4/4 341/4/4
f 331/4/4 335/4/4 341/4/4
f 307/4/4 315/4/4 341/4/4
f 327/4/4 331/4/4 341/4/4
f 315/4/4 319/4/4 341/4/4
f 323/4/4 327/4/4 341/4/4
f 319/4/4 323/4/4 341/4/4
f 340/4/4 338/4/4 342/4/4
f 341/4/4 340/4/4 342/4/4
f 54/1/4 52/1/4 342/1/4
f 326/4/4 322/4/4 342/4/4
f 330/4/4 326/4/4 342/4/4
f 322/4/4 318/4/4 342/4/4
f 334/4/4 330/4/4 342/4/4
f 318/4/4 314/4/4 342/4/4
f 312/4/4 310/4/4 342/4/4
f 314/4/4 312/4/4 342/4/4
f 338/4/4 334/4/4 342/4/4
f 304/4/4 302/4/4 342/4/4
f 302/4/4 298/4/4 342/4/4
f 298/4/4 292/4/4 342/4/4
f 310/4/4 306/4/4 342/4/4
f 292/4/4 284/4/4 342/4/4
f 276/4/4 264/4/4 342/4/4
f 264/4/4 258/4/4 342/4/4
f 278/4/4 276/4/4 342/4/4
f 258/4/4 252/4/4 342/4/4
f 284/4/4 278/4/4 342/4/4
f 306/4/4 304/4/4 342/4/4
f 250/4/4 248/4/4 342/4/4
f 248/4/4 246/4/4 342/4/4
f 246/4/4 244/4/4 342/4/4
f 244/4/4 242/4/4 342/4/4
f 242/4/4 240/4/4 342/4/4
f 240/4/4 236/4/4 342/4/4
f 252/4/4 250/4/4 342/4/4
f 222/4/4 216/4/4 342/4/4
f 236/4/4 232/4/4 342/4/4
f 228/4/4 222/4/4 342/4/4
f 232/4/4 228/4/4 342/4/4
f 216/4/4 212/4/4 342/4/4
f 204/4/4 198/4/4 342/4/4
f 212/4/4 208/4/4 342/4/4
f 208/4/4 204/4/4 342/4/4
f 198/4/4 194/4/4 342/4/4
f 194/4/4 190/4/4 342/4/4
f 182/4/4 176/4/4 342/4/4
f 190/4/4 186/4/4 342/4/4
f 186/4/4 182/4/4 342/4/4
f 170/4/4 168/4/4 342/4/4
f 176/4/4 170/4/4 342/4/4
f 168/4/4 160/4/4 342/4/4
f 152/4/4 146/4/4 342/4/4
f 160/4/4 156/4/4 342/4/4
f 142/4/4 136/4/4 342/4/4
f 156/4/4 152/4/4 342/4/4
f 146/4/4 142/4/4 342/4/4
f 126/4/4 54/4/4 342/4/4
f 136/4/4 132/4/4 342/4/4
f 132/4/4 126/4/4 342/4/4
f 51/1/4 341/1/4 343/1/4
f 341/1/4 342/1/4 343/1/4
f 342/1/4 52/1/4 344/1/4
f 343/1/4 342/1/4 344/1/4
f 343/2/4 344/2/4 345/2/4
f 345/2/4 344/2/4 346/2/4
f 351/2/5 348/2/5 347/2/5
f 352/1/5 349/1/5 348/1/5
f 352/2/5 348/2/5 351/2/5
f 353/2/5 350/2/5 349/2/5
f 353/1/5 349/1/5 352/1/5
f 354/2/5 350/2/5 353/2/5
f 355/2/5 351/2/5 347/2/5
f 356/1/5 352/1/5 351/1/5
f 356/2/5 351/2/5 355/2/5
f 356/1/5 353/1/5 352/1/5
f 356/1/5 354/1/5 353/1/5
f 357/2/5 350/2/5 354/2/5
f 357/1/5 354/1/5 356/1/5
f 358/2/5 350/2/5 357/2/5
f 359/1/5 356/1/5 355/1/5
f 359/1/5 357/1/5 356/1/5
f 359/1/5 358/1/5 357/1/5
f 360/1/5 358/1/5 359/1/5
f 361/1/5 358/1/5 360/1/5
f 362/1/5 358/1/5 361/1/5
f 363/2/5 360/2/5 359/2/5
f 363/1/5 361/1/5 360/1/5
f 364/1/5 361/1/5 363/1/5
f 365/1/5 361/1/5 364/1/5
f 366/2/5 362/2/5 361/2/5
f 366/1/5 361/1/5 365/1/5
f 367/2/5 363/2/5 359/2/5
f 367/2/5 364/2/5 363/2/5
f 368/1/5 365/1/5 364/1/5
f 368/2/5 364/2/5 367/2/5
f 369/2/5 366/2/5 365/2/5
f 369/1/5 365/1/5 368/1/5
f 370/2/5 362/2/5 366/2/5
f 370/2/5 366/2/5 369/2/5
f 371/6/6 372/6/6 375/6/6
f 373/6/6 374/6/6 375/6/6
f 372/6/6 373/6/6 375/6/6
f 375/6/6 374/6/6 376/6/6
f 376/6/6 374/6/6 377/6/6
f 377/6/6 374/6/6 378/6/6
f 379/2/6 380/2/6 383/2/6
f 383/2/6 380/2/6 384/2/6
f 380/1/6 381/1/6 385/1/6
f 384/2/6 380/2/6 385/2/6
f 381/2/6 382/2/6 386/2/6
f 385/1/6 381/1/6 386/1/6
f 386/2/6 382/2/6 387/2/6
f 387/2/6 382/2/6 388/2/6
f 383/1/6 384/1/6 389/1/6
f 389/1/6 384/1/6 390/1/6
f 387/1/6 388/1/6 393/1/6
f 393/1/6 388/1/6 394/1/6
f 389/2/6 390/2/6 395/2/6
f 390/2/6 391/2/6 395/2/6
f 391/1/6 392/1/6 396/1/6
f 395/2/6 391/2/6 396/2/6
f 393/2/6 394/2/6 397/2/6
f 396/1/6 392/1/6 397/1/6
f 392/2/6 393/2/6 397/2/6
f 397/2/6 394/2/6 398/2/6
