# MagicaVoxel @ Ephtracy

# group
o 

# material
mtllib Cuchillo.mtl
usemtl palette

# normals
vn -1 0 0
vn 1 0 0
vn 0 0 1
vn 0 0 -1
vn 0 -1 0
vn 0 1 0

# texcoords
vt 0.396484 0.5
vt 0.974609 0.5
vt 0.978516 0.5
vt 0.982422 0.5

# verts
v -7.6 -2.8 1.3
v -7.6 -2.8 -0.7
v -7.6 -2.7 1.4
v -7.6 -2.7 1.3
v -7.6 -2.7 -0.7
v -7.6 -2.7 -0.8
v -7.6 -2.6 1.5
v -7.6 -2.6 1.4
v -7.6 -2.6 -0.8
v -7.6 -2.6 -0.9
v -7.6 -2.1 1.5
v -7.6 -2.1 1.4
v -7.6 -2.1 -0.8
v -7.6 -2.1 -0.9
v -7.6 -2 1.4
v -7.6 -2 1.3
v -7.6 -2 -0.7
v -7.6 -2 -0.8
v -7.6 -1.9 1.3
v -7.6 -1.9 -0.7
v -1.8 -2.8 1.6
v -1.8 -2.8 1.3
v -1.8 -2.8 -0.7
v -1.8 -2.8 -1
v -1.8 -2.7 1.4
v -1.8 -2.7 1.3
v -1.8 -2.7 -0.7
v -1.8 -2.7 -0.8
v -1.8 -2.6 1.5
v -1.8 -2.6 1.4
v -1.8 -2.6 -0.8
v -1.8 -2.6 -0.9
v -1.8 -2.3 1.6
v -1.8 -2.3 1.5
v -1.8 -2.3 -0.9
v -1.8 -2.3 -1
v -1.7 -2.8 -1
v -1.7 -2.8 -1.2
v -1.7 -2.3 -1
v -1.7 -2.3 -1.2
v -1.6 -2.8 -1.2
v -1.6 -2.8 -1.3
v -1.6 -2.3 -1.2
v -1.6 -2.3 -1.3
v -1.5 -2.8 -1.3
v -1.5 -2.8 -1.4
v -1.5 -2.3 -1.3
v -1.5 -2.3 -1.4
v -1.4 -2.8 -1.4
v -1.4 -2.8 -1.5
v -1.4 -2.8 -1.6
v -1.4 -2.7 -1.4
v -1.4 -2.7 -1.5
v -1.4 -2.5 -1.5
v -1.4 -2.5 -1.6
v -1.4 -2.4 -1.4
v -1.4 -2.4 -1.5
v -1.3 -2.8 -1.6
v -1.3 -2.8 -1.7
v -1.3 -2.6 -1.6
v -1.3 -2.6 -1.7
v -1.2 -2.8 -1.7
v -1.2 -2.8 -1.8
v -1.2 -2.7 -1.7
v -1.2 -2.7 -1.8
v -1.1 -2.8 -1.8
v -1.1 -2.8 -1.9
v -1.1 -2.7 -1.8
v -1.1 -2.7 -1.9
v -1 -2.8 -1.9
v -1 -2.8 -2
v -1 -2.7 -1.9
v -1 -2.7 -2
v -0.8 -2.8 -2
v -0.8 -2.8 -2.1
v -0.8 -2.7 -2
v -0.8 -2.7 -2.1
v -0.5 -2.8 -2.1
v -0.5 -2.8 -2.2
v -0.5 -2.7 -2.1
v -0.5 -2.7 -2.2
v -1.8 -2.3 1.5
v -1.8 -2.3 -0.9
v -1.8 -2.1 1.5
v -1.8 -2.1 1.4
v -1.8 -2.1 -0.8
v -1.8 -2.1 -0.9
v -1.8 -2 1.4
v -1.8 -2 1.3
v -1.8 -2 -0.7
v -1.8 -2 -0.8
v -1.8 -1.9 1.3
v -1.8 -1.9 -0.7
v 3.7 -2.8 1.6
v 3.7 -2.8 1.5
v 3.7 -2.3 1.6
v 3.7 -2.3 1.5
v 4.2 -2.8 1.5
v 4.2 -2.8 1.4
v 4.2 -2.3 1.5
v 4.2 -2.3 1.4
v 4.6 -2.8 1.4
v 4.6 -2.8 1.3
v 4.6 -2.3 1.4
v 4.6 -2.3 1.3
v 4.8 -2.8 1.3
v 4.8 -2.8 1.2
v 4.8 -2.3 1.3
v 4.8 -2.3 1.2
v 5.2 -2.8 1.2
v 5.2 -2.8 1.1
v 5.2 -2.3 1.2
v 5.2 -2.3 1.1
v 5.3 -2.8 -2.1
v 5.3 -2.8 -2.2
v 5.3 -2.7 -2.1
v 5.3 -2.7 -2.2
v 5.5 -2.8 1.1
v 5.5 -2.8 1
v 5.5 -2.3 1.1
v 5.5 -2.3 1
v 5.8 -2.8 1
v 5.8 -2.8 0.9
v 5.8 -2.3 1
v 5.8 -2.3 0.9
v 5.9 -2.8 0.9
v 5.9 -2.8 0.8
v 5.9 -2.3 0.9
v 5.9 -2.3 0.8
v 6 -2.8 0.8
v 6 -2.8 0.7
v 6 -2.8 -2
v 6 -2.8 -2.1
v 6 -2.7 -2
v 6 -2.7 -2.1
v 6 -2.3 0.8
v 6 -2.3 0.7
v 6.2 -2.8 0.7
v 6.2 -2.8 0.6
v 6.2 -2.3 0.7
v 6.2 -2.3 0.6
v 6.3 -2.8 0.6
v 6.3 -2.8 0.5
v 6.3 -2.8 -1.9
v 6.3 -2.8 -2
v 6.3 -2.7 -1.9
v 6.3 -2.7 -2
v 6.3 -2.3 0.6
v 6.3 -2.3 0.5
v 6.4 -2.8 0.5
v 6.4 -2.8 0.4
v 6.4 -2.3 0.5
v 6.4 -2.3 0.4
v 6.5 -2.8 0.4
v 6.5 -2.8 0.3
v 6.5 -2.8 -1.8
v 6.5 -2.8 -1.9
v 6.5 -2.7 -1.8
v 6.5 -2.7 -1.9
v 6.5 -2.3 0.4
v 6.5 -2.3 0.3
v 6.6 -2.8 0.3
v 6.6 -2.8 0.2
v 6.6 -2.3 0.3
v 6.6 -2.3 0.2
v 6.7 -2.8 0.2
v 6.7 -2.8 2.38419e-007
v 6.7 -2.3 0.2
v 6.7 -2.3 2.38419e-007
v 6.8 -2.8 2.38419e-007
v 6.8 -2.8 -0.2
v 6.8 -2.8 -1.7
v 6.8 -2.8 -1.8
v 6.8 -2.7 -1.6
v 6.8 -2.7 -1.7
v 6.8 -2.7 -1.8
v 6.8 -2.6 -1.6
v 6.8 -2.6 -1.7
v 6.8 -2.3 2.38419e-007
v 6.8 -2.3 -0.2
v 6.9 -2.8 -0.2
v 6.9 -2.8 -0.3
v 6.9 -2.8 -1.6
v 6.9 -2.8 -1.7
v 6.9 -2.7 -1.6
v 6.9 -2.7 -1.7
v 6.9 -2.3 -0.2
v 6.9 -2.3 -0.3
v 7 -2.8 -0.3
v 7 -2.8 -0.6
v 7 -2.3 -0.3
v 7 -2.3 -0.6
v 7.1 -2.8 -0.6
v 7.1 -2.8 -0.7
v 7.1 -2.3 -0.6
v 7.1 -2.3 -0.7
v 7.2 -2.8 -0.7
v 7.2 -2.8 -0.9
v 7.2 -2.8 -1.5
v 7.2 -2.8 -1.6
v 7.2 -2.7 -1.5
v 7.2 -2.5 -1.5
v 7.2 -2.5 -1.6
v 7.2 -2.3 -0.7
v 7.2 -2.3 -0.9
v 7.3 -2.8 -0.9
v 7.3 -2.8 -1.3
v 7.3 -2.3 -0.9
v 7.3 -2.3 -1.3
v 7.4 -2.8 -1.3
v 7.4 -2.8 -1.4
v 7.4 -2.8 -1.5
v 7.4 -2.7 -1.4
v 7.4 -2.7 -1.5
v 7.4 -2.4 -1.4
v 7.4 -2.4 -1.5
v 7.4 -2.3 -1.3
v 7.4 -2.3 -1.4
v -1.8 -2.8 1.6
v -1.8 -2.3 1.6
v 3.7 -2.8 1.6
v 3.7 -2.3 1.6
v -7.6 -2.6 1.5
v -7.6 -2.1 1.5
v -1.8 -2.6 1.5
v -1.8 -2.3 1.5
v -1.8 -2.1 1.5
v 3.7 -2.8 1.5
v 3.7 -2.3 1.5
v 4.2 -2.8 1.5
v 4.2 -2.3 1.5
v -7.6 -2.7 1.4
v -7.6 -2.6 1.4
v -7.6 -2.1 1.4
v -7.6 -2 1.4
v -1.8 -2.7 1.4
v -1.8 -2.6 1.4
v -1.8 -2.1 1.4
v -1.8 -2 1.4
v 4.2 -2.8 1.4
v 4.2 -2.3 1.4
v 4.6 -2.8 1.4
v 4.6 -2.3 1.4
v -7.6 -2.8 1.3
v -7.6 -2.7 1.3
v -7.6 -2 1.3
v -7.6 -1.9 1.3
v -1.8 -2.8 1.3
v -1.8 -2.7 1.3
v -1.8 -2 1.3
v -1.8 -1.9 1.3
v 4.6 -2.8 1.3
v 4.6 -2.3 1.3
v 4.8 -2.8 1.3
v 4.8 -2.3 1.3
v 4.8 -2.8 1.2
v 4.8 -2.3 1.2
v 5.2 -2.8 1.2
v 5.2 -2.3 1.2
v 5.2 -2.8 1.1
v 5.2 -2.3 1.1
v 5.5 -2.8 1.1
v 5.5 -2.3 1.1
v 5.5 -2.8 1
v 5.5 -2.3 1
v 5.8 -2.8 1
v 5.8 -2.3 1
v 5.8 -2.8 0.9
v 5.8 -2.3 0.9
v 5.9 -2.8 0.9
v 5.9 -2.3 0.9
v 5.9 -2.8 0.8
v 5.9 -2.3 0.8
v 6 -2.8 0.8
v 6 -2.3 0.8
v 6 -2.8 0.7
v 6 -2.3 0.7
v 6.2 -2.8 0.7
v 6.2 -2.3 0.7
v 6.2 -2.8 0.6
v 6.2 -2.3 0.6
v 6.3 -2.8 0.6
v 6.3 -2.3 0.6
v 6.3 -2.8 0.5
v 6.3 -2.3 0.5
v 6.4 -2.8 0.5
v 6.4 -2.3 0.5
v 6.4 -2.8 0.4
v 6.4 -2.3 0.4
v 6.5 -2.8 0.4
v 6.5 -2.3 0.4
v 6.5 -2.8 0.3
v 6.5 -2.3 0.3
v 6.6 -2.8 0.3
v 6.6 -2.3 0.3
v 6.6 -2.8 0.2
v 6.6 -2.3 0.2
v 6.7 -2.8 0.2
v 6.7 -2.3 0.2
v 6.7 -2.8 2.38419e-007
v 6.7 -2.3 2.38419e-007
v 6.8 -2.8 2.38419e-007
v 6.8 -2.3 2.38419e-007
v 6.8 -2.8 -0.2
v 6.8 -2.3 -0.2
v 6.9 -2.8 -0.2
v 6.9 -2.3 -0.2
v 6.9 -2.8 -0.3
v 6.9 -2.3 -0.3
v 7 -2.8 -0.3
v 7 -2.3 -0.3
v 7 -2.8 -0.6
v 7 -2.3 -0.6
v 7.1 -2.8 -0.6
v 7.1 -2.3 -0.6
v 7.1 -2.8 -0.7
v 7.1 -2.3 -0.7
v 7.2 -2.8 -0.7
v 7.2 -2.3 -0.7
v 7.2 -2.8 -0.9
v 7.2 -2.3 -0.9
v 7.3 -2.8 -0.9
v 7.3 -2.3 -0.9
v 7.3 -2.8 -1.3
v 7.3 -2.3 -1.3
v 7.4 -2.8 -1.3
v 7.4 -2.3 -1.3
v -7.6 -2.8 -0.7
v -7.6 -2.7 -0.7
v -7.6 -2 -0.7
v -7.6 -1.9 -0.7
v -1.8 -2.8 -0.7
v -1.8 -2.7 -0.7
v -1.8 -2 -0.7
v -1.8 -1.9 -0.7
v -7.6 -2.7 -0.8
v -7.6 -2.6 -0.8
v -7.6 -2.1 -0.8
v -7.6 -2 -0.8
v -1.8 -2.7 -0.8
v -1.8 -2.6 -0.8
v -1.8 -2.1 -0.8
v -1.8 -2 -0.8
v -7.6 -2.6 -0.9
v -7.6 -2.1 -0.9
v -1.8 -2.6 -0.9
v -1.8 -2.3 -0.9
v -1.8 -2.1 -0.9
v -1.8 -2.8 -1
v -1.8 -2.3 -1
v -1.7 -2.8 -1
v -1.7 -2.3 -1
v -1.7 -2.8 -1.2
v -1.7 -2.3 -1.2
v -1.6 -2.8 -1.2
v -1.6 -2.3 -1.2
v -1.6 -2.8 -1.3
v -1.6 -2.3 -1.3
v -1.5 -2.8 -1.3
v -1.5 -2.3 -1.3
v -1.5 -2.8 -1.4
v -1.5 -2.3 -1.4
v -1.4 -2.8 -1.4
v -1.4 -2.7 -1.4
v -1.4 -2.4 -1.4
v 7.4 -2.4 -1.4
v 7.4 -2.3 -1.4
v -1.4 -2.5 -1.5
v -1.4 -2.4 -1.5
v 7.2 -2.8 -1.5
v 7.2 -2.7 -1.5
v 7.2 -2.5 -1.5
v 7.4 -2.8 -1.5
v 7.4 -2.7 -1.5
v 7.4 -2.4 -1.5
v -1.4 -2.8 -1.6
v -1.4 -2.5 -1.6
v -1.3 -2.8 -1.6
v -1.3 -2.6 -1.6
v 6.8 -2.7 -1.6
v 6.8 -2.6 -1.6
v 6.9 -2.8 -1.6
v 6.9 -2.7 -1.6
v 7.2 -2.8 -1.6
v 7.2 -2.5 -1.6
v -1.3 -2.8 -1.7
v -1.3 -2.6 -1.7
v -1.2 -2.8 -1.7
v -1.2 -2.7 -1.7
v 6.8 -2.8 -1.7
v 6.8 -2.7 -1.7
v 6.8 -2.6 -1.7
v 6.9 -2.8 -1.7
v 6.9 -2.7 -1.7
v -1.2 -2.8 -1.8
v -1.2 -2.7 -1.8
v -1.1 -2.8 -1.8
v -1.1 -2.7 -1.8
v 6.5 -2.8 -1.8
v 6.5 -2.7 -1.8
v 6.8 -2.8 -1.8
v 6.8 -2.7 -1.8
v -1.1 -2.8 -1.9
v -1.1 -2.7 -1.9
v -1 -2.8 -1.9
v -1 -2.7 -1.9
v 6.3 -2.8 -1.9
v 6.3 -2.7 -1.9
v 6.5 -2.8 -1.9
v 6.5 -2.7 -1.9
v -1 -2.8 -2
v -1 -2.7 -2
v -0.8 -2.8 -2
v -0.8 -2.7 -2
v 6 -2.8 -2
v 6 -2.7 -2
v 6.3 -2.8 -2
v 6.3 -2.7 -2
v -0.8 -2.8 -2.1
v -0.8 -2.7 -2.1
v -0.5 -2.8 -2.1
v -0.5 -2.7 -2.1
v 5.3 -2.8 -2.1
v 5.3 -2.7 -2.1
v 6 -2.8 -2.1
v 6 -2.7 -2.1
v -0.5 -2.8 -2.2
v -0.5 -2.7 -2.2
v 5.3 -2.8 -2.2
v 5.3 -2.7 -2.2
v -1.8 -2.8 1.6
v 3.7 -2.8 1.6
v 3.7 -2.8 1.5
v 4.2 -2.8 1.5
v 4.2 -2.8 1.4
v 4.6 -2.8 1.4
v -7.6 -2.8 1.3
v -1.8 -2.8 1.3
v 4.6 -2.8 1.3
v 4.8 -2.8 1.3
v 4.8 -2.8 1.2
v 5.2 -2.8 1.2
v 5.2 -2.8 1.1
v 5.5 -2.8 1.1
v 5.5 -2.8 1
v 5.8 -2.8 1
v 5.8 -2.8 0.9
v 5.9 -2.8 0.9
v 5.9 -2.8 0.8
v 6 -2.8 0.8
v 6 -2.8 0.7
v 6.2 -2.8 0.7
v 6.2 -2.8 0.6
v 6.3 -2.8 0.6
v 6.3 -2.8 0.5
v 6.4 -2.8 0.5
v 6.4 -2.8 0.4
v 6.5 -2.8 0.4
v 6.5 -2.8 0.3
v 6.6 -2.8 0.3
v 6.6 -2.8 0.2
v 6.7 -2.8 0.2
v 6.7 -2.8 2.38419e-007
v 6.8 -2.8 2.38419e-007
v 6.8 -2.8 -0.2
v 6.9 -2.8 -0.2
v 6.9 -2.8 -0.3
v 7 -2.8 -0.3
v 7 -2.8 -0.6
v 7.1 -2.8 -0.6
v -7.6 -2.8 -0.7
v -1.8 -2.8 -0.7
v 7.1 -2.8 -0.7
v 7.2 -2.8 -0.7
v 7.2 -2.8 -0.9
v 7.3 -2.8 -0.9
v -1.8 -2.8 -1
v -1.7 -2.8 -1
v -1.7 -2.8 -1.2
v -1.6 -2.8 -1.2
v -1.6 -2.8 -1.3
v -1.5 -2.8 -1.3
v 7.3 -2.8 -1.3
v 7.4 -2.8 -1.3
v -1.5 -2.8 -1.4
v -1.4 -2.8 -1.4
v 7.4 -2.8 -1.4
v -1.4 -2.8 -1.5
v 7.2 -2.8 -1.5
v 7.4 -2.8 -1.5
v -1.4 -2.8 -1.6
v -1.3 -2.8 -1.6
v 6.9 -2.8 -1.6
v 7.2 -2.8 -1.6
v -1.3 -2.8 -1.7
v -1.2 -2.8 -1.7
v 6.8 -2.8 -1.7
v 6.9 -2.8 -1.7
v -1.2 -2.8 -1.8
v -1.1 -2.8 -1.8
v 6.5 -2.8 -1.8
v 6.8 -2.8 -1.8
v -1.1 -2.8 -1.9
v -1 -2.8 -1.9
v 6.3 -2.8 -1.9
v 6.5 -2.8 -1.9
v -1 -2.8 -2
v -0.8 -2.8 -2
v 6 -2.8 -2
v 6.3 -2.8 -2
v -0.8 -2.8 -2.1
v -0.5 -2.8 -2.1
v 5.3 -2.8 -2.1
v 6 -2.8 -2.1
v -0.5 -2.8 -2.2
v 5.3 -2.8 -2.2
v -7.6 -2.7 1.4
v -1.8 -2.7 1.4
v -7.6 -2.7 1.3
v -1.8 -2.7 1.3
v -7.6 -2.7 -0.7
v -1.8 -2.7 -0.7
v -7.6 -2.7 -0.8
v -1.8 -2.7 -0.8
v -7.6 -2.6 1.5
v -1.8 -2.6 1.5
v -7.6 -2.6 1.4
v -1.8 -2.6 1.4
v -7.6 -2.6 -0.8
v -1.8 -2.6 -0.8
v -7.6 -2.6 -0.9
v -1.8 -2.6 -0.9
v 6.8 -2.7 -1.6
v 6.9 -2.7 -1.6
v -1.2 -2.7 -1.7
v 6.8 -2.7 -1.7
v 6.9 -2.7 -1.7
v -1.2 -2.7 -1.8
v -1.1 -2.7 -1.8
v 6.5 -2.7 -1.8
v 6.8 -2.7 -1.8
v -1.1 -2.7 -1.9
v -1 -2.7 -1.9
v 6.3 -2.7 -1.9
v 6.5 -2.7 -1.9
v -1 -2.7 -2
v -0.8 -2.7 -2
v 6 -2.7 -2
v 6.3 -2.7 -2
v -0.8 -2.7 -2.1
v -0.5 -2.7 -2.1
v 5.3 -2.7 -2.1
v 6 -2.7 -2.1
v -0.5 -2.7 -2.2
v 5.3 -2.7 -2.2
v -1.3 -2.6 -1.6
v 6.8 -2.6 -1.6
v -1.3 -2.6 -1.7
v 6.8 -2.6 -1.7
v -1.4 -2.5 -1.5
v 7.2 -2.5 -1.5
v -1.4 -2.5 -1.6
v 7.2 -2.5 -1.6
v -1.4 -2.4 -1.4
v 7.4 -2.4 -1.4
v -1.4 -2.4 -1.5
v 7.4 -2.4 -1.5
v -1.8 -2.3 1.6
v 3.7 -2.3 1.6
v -1.8 -2.3 1.5
v 3.7 -2.3 1.5
v 4.2 -2.3 1.5
v 4.2 -2.3 1.4
v 4.6 -2.3 1.4
v 4.6 -2.3 1.3
v 4.8 -2.3 1.3
v 4.8 -2.3 1.2
v 5.2 -2.3 1.2
v 5.2 -2.3 1.1
v 5.5 -2.3 1.1
v 5.5 -2.3 1
v 5.8 -2.3 1
v 5.8 -2.3 0.9
v 5.9 -2.3 0.9
v 5.9 -2.3 0.8
v 6 -2.3 0.8
v 6 -2.3 0.7
v 6.2 -2.3 0.7
v 6.2 -2.3 0.6
v 6.3 -2.3 0.6
v 6.3 -2.3 0.5
v 6.4 -2.3 0.5
v 6.4 -2.3 0.4
v 6.5 -2.3 0.4
v 6.5 -2.3 0.3
v 6.6 -2.3 0.3
v 6.6 -2.3 0.2
v 6.7 -2.3 0.2
v 6.7 -2.3 2.38419e-007
v 6.8 -2.3 2.38419e-007
v 6.8 -2.3 -0.2
v 6.9 -2.3 -0.2
v 6.9 -2.3 -0.3
v 7 -2.3 -0.3
v 7 -2.3 -0.6
v 7.1 -2.3 -0.6
v 7.1 -2.3 -0.7
v 7.2 -2.3 -0.7
v -1.8 -2.3 -0.9
v 7.2 -2.3 -0.9
v 7.3 -2.3 -0.9
v -1.8 -2.3 -1
v -1.7 -2.3 -1
v -1.7 -2.3 -1.2
v -1.6 -2.3 -1.2
v -1.6 -2.3 -1.3
v -1.5 -2.3 -1.3
v 7.3 -2.3 -1.3
v 7.4 -2.3 -1.3
v -1.5 -2.3 -1.4
v 7.4 -2.3 -1.4
v -7.6 -2.1 1.5
v -1.8 -2.1 1.5
v -7.6 -2.1 1.4
v -1.8 -2.1 1.4
v -7.6 -2.1 -0.8
v -1.8 -2.1 -0.8
v -7.6 -2.1 -0.9
v -1.8 -2.1 -0.9
v -7.6 -2 1.4
v -1.8 -2 1.4
v -7.6 -2 1.3
v -1.8 -2 1.3
v -7.6 -2 -0.7
v -1.8 -2 -0.7
v -7.6 -2 -0.8
v -1.8 -2 -0.8
v -7.6 -1.9 1.3
v -1.8 -1.9 1.3
v -7.6 -1.9 -0.7
v -1.8 -1.9 -0.7

# faces
f 4/1/1 2/1/1 1/1/1
f 5/1/1 2/1/1 4/1/1
f 8/1/1 4/1/1 3/1/1
f 8/1/1 6/1/1 5/1/1
f 8/1/1 5/1/1 4/1/1
f 9/1/1 6/1/1 8/1/1
f 11/1/1 8/1/1 7/1/1
f 11/1/1 10/1/1 9/1/1
f 11/1/1 9/1/1 8/1/1
f 12/1/1 10/1/1 11/1/1
f 13/1/1 10/1/1 12/1/1
f 14/1/1 10/1/1 13/1/1
f 15/1/1 13/1/1 12/1/1
f 16/1/1 13/1/1 15/1/1
f 17/1/1 13/1/1 16/1/1
f 18/1/1 13/1/1 17/1/1
f 19/1/1 17/1/1 16/1/1
f 20/1/1 17/1/1 19/1/1
f 25/3/1 22/3/1 21/3/1
f 26/3/1 22/3/1 25/3/1
f 27/3/1 24/3/1 23/3/1
f 28/3/1 24/3/1 27/3/1
f 29/3/1 25/3/1 21/3/1
f 30/3/1 25/3/1 29/3/1
f 31/3/1 24/3/1 28/3/1
f 32/3/1 24/3/1 31/3/1
f 33/3/1 29/3/1 21/3/1
f 34/3/1 29/3/1 33/3/1
f 35/3/1 24/3/1 32/3/1
f 36/3/1 24/3/1 35/3/1
f 39/3/1 38/3/1 37/3/1
f 40/3/1 38/3/1 39/3/1
f 43/3/1 42/3/1 41/3/1
f 44/3/1 42/3/1 43/3/1
f 47/3/1 46/3/1 45/3/1
f 48/3/1 46/3/1 47/3/1
f 52/4/1 50/4/1 49/4/1
f 53/2/1 51/2/1 50/2/1
f 53/4/1 50/4/1 52/4/1
f 54/2/1 53/2/1 52/2/1
f 54/2/1 51/2/1 53/2/1
f 55/2/1 51/2/1 54/2/1
f 56/2/1 54/2/1 52/2/1
f 57/2/1 54/2/1 56/2/1
f 60/2/1 59/2/1 58/2/1
f 61/2/1 59/2/1 60/2/1
f 64/2/1 63/2/1 62/2/1
f 65/2/1 63/2/1 64/2/1
f 68/2/1 67/2/1 66/2/1
f 69/2/1 67/2/1 68/2/1
f 72/2/1 71/2/1 70/2/1
f 73/2/1 71/2/1 72/2/1
f 76/2/1 75/2/1 74/2/1
f 77/2/1 75/2/1 76/2/1
f 80/2/1 79/2/1 78/2/1
f 81/2/1 79/2/1 80/2/1
f 82/1/2 83/1/2 84/1/2
f 84/1/2 83/1/2 85/1/2
f 85/1/2 83/1/2 86/1/2
f 86/1/2 83/1/2 87/1/2
f 85/1/2 86/1/2 88/1/2
f 88/1/2 86/1/2 89/1/2
f 89/1/2 86/1/2 90/1/2
f 90/1/2 86/1/2 91/1/2
f 89/1/2 90/1/2 92/1/2
f 92/1/2 90/1/2 93/1/2
f 94/3/2 95/3/2 96/3/2
f 96/3/2 95/3/2 97/3/2
f 98/3/2 99/3/2 100/3/2
f 100/3/2 99/3/2 101/3/2
f 102/3/2 103/3/2 104/3/2
f 104/3/2 103/3/2 105/3/2
f 106/3/2 107/3/2 108/3/2
f 108/3/2 107/3/2 109/3/2
f 110/3/2 111/3/2 112/3/2
f 112/3/2 111/3/2 113/3/2
f 114/2/2 115/2/2 116/2/2
f 116/2/2 115/2/2 117/2/2
f 118/3/2 119/3/2 120/3/2
f 120/3/2 119/3/2 121/3/2
f 122/3/2 123/3/2 124/3/2
f 124/3/2 123/3/2 125/3/2
f 126/3/2 127/3/2 128/3/2
f 128/3/2 127/3/2 129/3/2
f 132/2/2 133/2/2 134/2/2
f 134/2/2 133/2/2 135/2/2
f 130/3/2 131/3/2 136/3/2
f 136/3/2 131/3/2 137/3/2
f 138/3/2 139/3/2 140/3/2
f 140/3/2 139/3/2 141/3/2
f 144/2/2 145/2/2 146/2/2
f 146/2/2 145/2/2 147/2/2
f 142/3/2 143/3/2 148/3/2
f 148/3/2 143/3/2 149/3/2
f 150/3/2 151/3/2 152/3/2
f 152/3/2 151/3/2 153/3/2
f 156/2/2 157/2/2 158/2/2
f 158/2/2 157/2/2 159/2/2
f 154/3/2 155/3/2 160/3/2
f 160/3/2 155/3/2 161/3/2
f 162/3/2 163/3/2 164/3/2
f 164/3/2 163/3/2 165/3/2
f 166/3/2 167/3/2 168/3/2
f 168/3/2 167/3/2 169/3/2
f 172/2/2 173/2/2 175/2/2
f 175/2/2 173/2/2 176/2/2
f 174/2/2 175/2/2 177/2/2
f 177/2/2 175/2/2 178/2/2
f 170/3/2 171/3/2 179/3/2
f 179/3/2 171/3/2 180/3/2
f 183/2/2 184/2/2 185/2/2
f 185/2/2 184/2/2 186/2/2
f 181/3/2 182/3/2 187/3/2
f 187/3/2 182/3/2 188/3/2
f 189/3/2 190/3/2 191/3/2
f 191/3/2 190/3/2 192/3/2
f 193/3/2 194/3/2 195/3/2
f 195/3/2 194/3/2 196/3/2
f 199/2/2 200/2/2 201/2/2
f 201/2/2 200/2/2 202/2/2
f 202/2/2 200/2/2 203/2/2
f 197/3/2 198/3/2 204/3/2
f 204/3/2 198/3/2 205/3/2
f 206/3/2 207/3/2 208/3/2
f 208/3/2 207/3/2 209/3/2
f 210/3/2 211/3/2 213/3/2
f 211/4/2 212/4/2 213/4/2
f 213/4/2 212/4/2 214/4/2
f 210/3/2 213/3/2 215/3/2
f 213/2/2 214/2/2 215/2/2
f 215/2/2 214/2/2 216/2/2
f 210/3/2 215/3/2 217/3/2
f 217/3/2 215/3/2 218/3/2
f 221/3/3 220/3/3 219/3/3
f 222/3/3 220/3/3 221/3/3
f 225/1/3 224/1/3 223/1/3
f 226/1/3 224/1/3 225/1/3
f 227/1/3 224/1/3 226/1/3
f 230/3/3 229/3/3 228/3/3
f 231/3/3 229/3/3 230/3/3
f 236/1/3 233/1/3 232/1/3
f 237/1/3 233/1/3 236/1/3
f 238/1/3 235/1/3 234/1/3
f 239/1/3 235/1/3 238/1/3
f 242/3/3 241/3/3 240/3/3
f 243/3/3 241/3/3 242/3/3
f 248/1/3 245/1/3 244/1/3
f 249/1/3 245/1/3 248/1/3
f 250/1/3 247/1/3 246/1/3
f 251/1/3 247/1/3 250/1/3
f 254/3/3 253/3/3 252/3/3
f 255/3/3 253/3/3 254/3/3
f 258/3/3 257/3/3 256/3/3
f 259/3/3 257/3/3 258/3/3
f 262/3/3 261/3/3 260/3/3
f 263/3/3 261/3/3 262/3/3
f 266/3/3 265/3/3 264/3/3
f 267/3/3 265/3/3 266/3/3
f 270/3/3 269/3/3 268/3/3
f 271/3/3 269/3/3 270/3/3
f 274/3/3 273/3/3 272/3/3
f 275/3/3 273/3/3 274/3/3
f 278/3/3 277/3/3 276/3/3
f 279/3/3 277/3/3 278/3/3
f 282/3/3 281/3/3 280/3/3
f 283/3/3 281/3/3 282/3/3
f 286/3/3 285/3/3 284/3/3
f 287/3/3 285/3/3 286/3/3
f 290/3/3 289/3/3 288/3/3
f 291/3/3 289/3/3 290/3/3
f 294/3/3 293/3/3 292/3/3
f 295/3/3 293/3/3 294/3/3
f 298/3/3 297/3/3 296/3/3
f 299/3/3 297/3/3 298/3/3
f 302/3/3 301/3/3 300/3/3
f 303/3/3 301/3/3 302/3/3
f 306/3/3 305/3/3 304/3/3
f 307/3/3 305/3/3 306/3/3
f 310/3/3 309/3/3 308/3/3
f 311/3/3 309/3/3 310/3/3
f 314/3/3 313/3/3 312/3/3
f 315/3/3 313/3/3 314/3/3
f 318/3/3 317/3/3 316/3/3
f 319/3/3 317/3/3 318/3/3
f 322/3/3 321/3/3 320/3/3
f 323/3/3 321/3/3 322/3/3
f 326/3/3 325/3/3 324/3/3
f 327/3/3 325/3/3 326/3/3
f 328/1/4 329/1/4 332/1/4
f 332/1/4 329/1/4 333/1/4
f 330/1/4 331/1/4 334/1/4
f 334/1/4 331/1/4 335/1/4
f 336/1/4 337/1/4 340/1/4
f 340/1/4 337/1/4 341/1/4
f 338/1/4 339/1/4 342/1/4
f 342/1/4 339/1/4 343/1/4
f 344/1/4 345/1/4 346/1/4
f 346/1/4 345/1/4 347/1/4
f 347/1/4 345/1/4 348/1/4
f 349/3/4 350/3/4 351/3/4
f 351/3/4 350/3/4 352/3/4
f 353/3/4 354/3/4 355/3/4
f 355/3/4 354/3/4 356/3/4
f 357/3/4 358/3/4 359/3/4
f 359/3/4 358/3/4 360/3/4
f 361/3/4 362/3/4 363/3/4
f 363/3/4 362/3/4 364/3/4
f 364/3/4 362/3/4 365/3/4
f 365/3/4 362/3/4 366/3/4
f 366/3/4 362/3/4 367/3/4
f 368/2/4 369/2/4 372/2/4
f 370/4/4 371/4/4 373/4/4
f 371/2/4 372/2/4 374/2/4
f 373/4/4 371/4/4 374/4/4
f 372/2/4 369/2/4 375/2/4
f 374/2/4 372/2/4 375/2/4
f 376/2/4 377/2/4 378/2/4
f 378/2/4 377/2/4 379/2/4
f 379/2/4 377/2/4 381/2/4
f 380/2/4 381/2/4 383/2/4
f 382/2/4 383/2/4 384/2/4
f 381/2/4 377/2/4 385/2/4
f 384/2/4 383/2/4 385/2/4
f 383/2/4 381/2/4 385/2/4
f 386/2/4 387/2/4 388/2/4
f 388/2/4 387/2/4 389/2/4
f 389/2/4 387/2/4 391/2/4
f 391/2/4 387/2/4 392/2/4
f 390/2/4 391/2/4 393/2/4
f 393/2/4 391/2/4 394/2/4
f 395/2/4 396/2/4 397/2/4
f 397/2/4 396/2/4 398/2/4
f 399/2/4 400/2/4 401/2/4
f 401/2/4 400/2/4 402/2/4
f 403/2/4 404/2/4 405/2/4
f 405/2/4 404/2/4 406/2/4
f 407/2/4 408/2/4 409/2/4
f 409/2/4 408/2/4 410/2/4
f 411/2/4 412/2/4 413/2/4
f 413/2/4 412/2/4 414/2/4
f 415/2/4 416/2/4 417/2/4
f 417/2/4 416/2/4 418/2/4
f 419/2/4 420/2/4 421/2/4
f 421/2/4 420/2/4 422/2/4
f 423/2/4 424/2/4 425/2/4
f 425/2/4 424/2/4 426/2/4
f 427/2/4 428/2/4 429/2/4
f 429/2/4 428/2/4 430/2/4
f 433/3/5 432/3/5 431/3/5
f 435/3/5 434/3/5 433/3/5
f 438/3/5 433/3/5 431/3/5
f 438/3/5 436/3/5 435/3/5
f 438/3/5 435/3/5 433/3/5
f 439/3/5 436/3/5 438/3/5
f 441/3/5 439/3/5 438/3/5
f 441/3/5 440/3/5 439/3/5
f 443/3/5 442/3/5 441/3/5
f 445/3/5 444/3/5 443/3/5
f 447/3/5 446/3/5 445/3/5
f 449/3/5 448/3/5 447/3/5
f 451/3/5 450/3/5 449/3/5
f 453/3/5 452/3/5 451/3/5
f 455/3/5 454/3/5 453/3/5
f 457/3/5 456/3/5 455/3/5
f 459/3/5 458/3/5 457/3/5
f 461/3/5 460/3/5 459/3/5
f 463/3/5 462/3/5 461/3/5
f 465/3/5 464/3/5 463/3/5
f 467/3/5 466/3/5 465/3/5
f 469/3/5 468/3/5 467/3/5
f 471/1/5 438/1/5 437/1/5
f 472/3/5 470/3/5 469/3/5
f 472/1/5 438/1/5 471/1/5
f 472/3/5 441/3/5 438/3/5
f 472/3/5 469/3/5 467/3/5
f 472/3/5 467/3/5 465/3/5
f 472/3/5 465/3/5 463/3/5
f 472/3/5 463/3/5 461/3/5
f 472/3/5 461/3/5 459/3/5
f 472/3/5 459/3/5 457/3/5
f 472/3/5 457/3/5 455/3/5
f 472/3/5 455/3/5 453/3/5
f 472/3/5 453/3/5 451/3/5
f 472/3/5 451/3/5 449/3/5
f 472/3/5 449/3/5 447/3/5
f 472/3/5 447/3/5 445/3/5
f 472/3/5 445/3/5 443/3/5
f 472/3/5 443/3/5 441/3/5
f 473/3/5 470/3/5 472/3/5
f 475/3/5 474/3/5 473/3/5
f 475/3/5 473/3/5 472/3/5
f 477/3/5 475/3/5 472/3/5
f 477/3/5 476/3/5 475/3/5
f 478/3/5 476/3/5 477/3/5
f 479/3/5 476/3/5 478/3/5
f 480/3/5 476/3/5 479/3/5
f 481/3/5 476/3/5 480/3/5
f 482/3/5 476/3/5 481/3/5
f 483/3/5 476/3/5 482/3/5
f 485/3/5 484/3/5 483/3/5
f 485/3/5 483/3/5 482/3/5
f 486/3/5 484/3/5 485/3/5
f 487/3/5 484/3/5 486/3/5
f 488/4/5 487/4/5 486/4/5
f 489/4/5 487/4/5 488/4/5
f 490/4/5 487/4/5 489/4/5
f 491/2/5 489/2/5 488/2/5
f 492/2/5 489/2/5 491/2/5
f 493/2/5 489/2/5 492/2/5
f 494/2/5 489/2/5 493/2/5
f 495/2/5 493/2/5 492/2/5
f 496/2/5 493/2/5 495/2/5
f 497/2/5 493/2/5 496/2/5
f 498/2/5 493/2/5 497/2/5
f 499/2/5 497/2/5 496/2/5
f 500/2/5 497/2/5 499/2/5
f 501/2/5 497/2/5 500/2/5
f 502/2/5 497/2/5 501/2/5
f 503/2/5 501/2/5 500/2/5
f 504/2/5 501/2/5 503/2/5
f 505/2/5 501/2/5 504/2/5
f 506/2/5 501/2/5 505/2/5
f 507/2/5 505/2/5 504/2/5
f 508/2/5 505/2/5 507/2/5
f 509/2/5 505/2/5 508/2/5
f 510/2/5 505/2/5 509/2/5
f 511/2/5 509/2/5 508/2/5
f 512/2/5 509/2/5 511/2/5
f 513/2/5 509/2/5 512/2/5
f 514/2/5 509/2/5 513/2/5
f 515/2/5 513/2/5 512/2/5
f 516/2/5 513/2/5 515/2/5
f 519/1/5 518/1/5 517/1/5
f 520/1/5 518/1/5 519/1/5
f 523/1/5 522/1/5 521/1/5
f 524/1/5 522/1/5 523/1/5
f 527/1/5 526/1/5 525/1/5
f 528/1/5 526/1/5 527/1/5
f 531/1/5 530/1/5 529/1/5
f 532/1/5 530/1/5 531/1/5
f 533/2/6 534/2/6 536/2/6
f 536/2/6 534/2/6 537/2/6
f 535/2/6 536/2/6 538/2/6
f 538/2/6 536/2/6 539/2/6
f 539/2/6 536/2/6 540/2/6
f 540/2/6 536/2/6 541/2/6
f 539/2/6 540/2/6 542/2/6
f 542/2/6 540/2/6 543/2/6
f 543/2/6 540/2/6 544/2/6
f 544/2/6 540/2/6 545/2/6
f 543/2/6 544/2/6 546/2/6
f 546/2/6 544/2/6 547/2/6
f 547/2/6 544/2/6 548/2/6
f 548/2/6 544/2/6 549/2/6
f 547/2/6 548/2/6 550/2/6
f 550/2/6 548/2/6 551/2/6
f 551/2/6 548/2/6 552/2/6
f 552/2/6 548/2/6 553/2/6
f 551/2/6 552/2/6 554/2/6
f 554/2/6 552/2/6 555/2/6
f 556/2/6 557/2/6 558/2/6
f 558/2/6 557/2/6 559/2/6
f 560/2/6 561/2/6 562/2/6
f 562/2/6 561/2/6 563/2/6
f 564/2/6 565/2/6 566/2/6
f 566/2/6 565/2/6 567/2/6
f 568/3/6 569/3/6 570/3/6
f 570/3/6 569/3/6 571/3/6
f 570/3/6 571/3/6 573/3/6
f 571/3/6 572/3/6 573/3/6
f 573/3/6 574/3/6 575/3/6
f 575/3/6 576/3/6 577/3/6
f 577/3/6 578/3/6 579/3/6
f 579/3/6 580/3/6 581/3/6
f 581/3/6 582/3/6 583/3/6
f 583/3/6 584/3/6 585/3/6
f 585/3/6 586/3/6 587/3/6
f 587/3/6 588/3/6 589/3/6
f 589/3/6 590/3/6 591/3/6
f 591/3/6 592/3/6 593/3/6
f 593/3/6 594/3/6 595/3/6
f 595/3/6 596/3/6 597/3/6
f 597/3/6 598/3/6 599/3/6
f 599/3/6 600/3/6 601/3/6
f 601/3/6 602/3/6 603/3/6
f 603/3/6 604/3/6 605/3/6
f 605/3/6 606/3/6 607/3/6
f 570/3/6 573/3/6 609/3/6
f 607/3/6 608/3/6 609/3/6
f 605/3/6 607/3/6 609/3/6
f 603/3/6 605/3/6 609/3/6
f 601/3/6 603/3/6 609/3/6
f 599/3/6 601/3/6 609/3/6
f 597/3/6 599/3/6 609/3/6
f 595/3/6 597/3/6 609/3/6
f 593/3/6 595/3/6 609/3/6
f 591/3/6 593/3/6 609/3/6
f 589/3/6 591/3/6 609/3/6
f 587/3/6 589/3/6 609/3/6
f 585/3/6 587/3/6 609/3/6
f 583/3/6 585/3/6 609/3/6
f 581/3/6 583/3/6 609/3/6
f 579/3/6 581/3/6 609/3/6
f 577/3/6 579/3/6 609/3/6
f 575/3/6 577/3/6 609/3/6
f 573/3/6 575/3/6 609/3/6
f 609/3/6 608/3/6 610/3/6
f 609/3/6 610/3/6 612/3/6
f 610/3/6 611/3/6 612/3/6
f 612/3/6 611/3/6 613/3/6
f 613/3/6 611/3/6 614/3/6
f 614/3/6 611/3/6 615/3/6
f 615/3/6 611/3/6 616/3/6
f 616/3/6 611/3/6 617/3/6
f 617/3/6 611/3/6 618/3/6
f 618/3/6 619/3/6 620/3/6
f 617/3/6 618/3/6 620/3/6
f 620/3/6 619/3/6 621/3/6
f 622/1/6 623/1/6 624/1/6
f 624/1/6 623/1/6 625/1/6
f 626/1/6 627/1/6 628/1/6
f 628/1/6 627/1/6 629/1/6
f 630/1/6 631/1/6 632/1/6
f 632/1/6 631/1/6 633/1/6
f 634/1/6 635/1/6 636/1/6
f 636/1/6 635/1/6 637/1/6
f 638/1/6 639/1/6 640/1/6
f 640/1/6 639/1/6 641/1/6
