# MagicaVoxel @ Ephtracy

# group
o 

# material
mtllib Extintor.mtl
usemtl palette

# normals
vn -1 0 0
vn 1 0 0
vn 0 0 1
vn 0 0 -1
vn 0 -1 0
vn 0 1 0

# texcoords
vt 0.0214844 0.5
vt 0.841797 0.5
vt 0.966797 0.5
vt 0.994141 0.5

# verts
v -6.4 3.2 0.6
v -6.4 3.2 -0.6
v -6.4 7.4 0.6
v -6.4 7.4 -0.6
v -5.8 2 0.6
v -5.8 2 -0.6
v -5.8 3.2 0.6
v -5.8 3.2 -0.6
v -5.8 7.4 0.6
v -5.8 7.4 -0.6
v -5.8 8 0.6
v -5.8 8 -0.6
v -5.2 0.8 0.6
v -5.2 0.8 -0.6
v -5.2 2 0.6
v -5.2 2 -0.6
v -4.6 0.2 0.6
v -4.6 0.2 -0.6
v -4.6 0.8 0.6
v -4.6 0.8 -0.6
v -4.6 8 0.6
v -4.6 8 -0.6
v -4.6 8.6 0.6
v -4.6 8.6 -0.6
v -4 -2.8 0.6
v -4 -2.8 -0.6
v -4 0.2 0.6
v -4 0.2 -0.6
v -2.8 -2.8 1.8
v -2.8 -2.8 0.6
v -2.8 -2.8 -0.6
v -2.8 -2.8 -1.8
v -2.8 0.8 0.6
v -2.8 0.8 -0.6
v -2.8 7.4 0.6
v -2.8 7.4 -0.6
v -2.8 8.6 0.6
v -2.8 8.6 -0.6
v -2.8 9.8 1.8
v -2.8 9.8 -1.8
v -2.8 11.6 0.6
v -2.8 11.6 -0.6
v -2.8 12.2 0.6
v -2.8 12.2 -0.6
v -2.8 14 0.6
v -2.8 14 -0.6
v -2.8 14.6 0.6
v -2.8 14.6 -0.6
v -2.2 -2.8 2.4
v -2.2 -2.8 1.8
v -2.2 -2.8 -1.8
v -2.2 -2.8 -2.4
v -2.2 9.8 2.4
v -2.2 9.8 1.8
v -2.2 9.8 -1.8
v -2.2 9.8 -2.4
v -1.6 -2.8 3
v -1.6 -2.8 2.4
v -1.6 -2.8 -2.4
v -1.6 -2.8 -3
v -1.6 9.8 3
v -1.6 9.8 2.4
v -1.6 9.8 -2.4
v -1.6 9.8 -3
v -1.6 12.2 0.6
v -1.6 12.2 -0.6
v -1.6 12.8 0.6
v -1.6 12.8 -0.6
v -1 -2.8 3.6
v -1 -2.8 3
v -1 -2.8 -3
v -1 -2.8 -3.6
v -1 9.8 3.6
v -1 9.8 3
v -1 9.8 -3
v -1 9.8 -3.6
v -0.4 -2.8 4.2
v -0.4 -2.8 3.6
v -0.4 -2.8 -3.6
v -0.4 -2.8 -4.2
v -0.4 0.8 4.2
v -0.4 0.8 3.6
v -0.4 5.6 4.2
v -0.4 5.6 3.6
v -0.4 6.2 4.2
v -0.4 6.2 3.6
v -0.4 9.8 4.2
v -0.4 9.8 3.6
v -0.4 9.8 1.8
v -0.4 9.8 -1.8
v -0.4 9.8 -3.6
v -0.4 9.8 -4.2
v -0.4 10.4 1.8
v -0.4 10.4 -1.8
v -0.4 12.8 0.6
v -0.4 12.8 -0.6
v -0.4 13.4 0.6
v -0.4 13.4 -0.6
v 0.2 10.4 0.6
v 0.2 10.4 -0.6
v 0.2 11 0.6
v 0.2 11 -0.6
v 0.8 10.4 1.2
v 0.8 10.4 0.6
v 0.8 10.4 -0.6
v 0.8 10.4 -1.2
v 0.8 11 1.2
v 0.8 11 0.6
v 0.8 11 -0.6
v 0.8 11 -1.2
v 0.8 11.6 0.6
v 0.8 11.6 -0.6
v 0.8 12.8 0.6
v 0.8 12.8 -0.6
v 0.8 13.4 0.6
v 0.8 13.4 -0.6
v 0.8 14 0.6
v 0.8 14 -0.6
v -5.2 3.8 0.6
v -5.2 3.8 -0.6
v -5.2 6.8 0.6
v -5.2 6.8 -0.6
v -4.6 2.6 0.6
v -4.6 2.6 -0.6
v -4.6 3.8 0.6
v -4.6 3.8 -0.6
v -4.6 6.8 0.6
v -4.6 6.8 -0.6
v -4.6 7.4 0.6
v -4.6 7.4 -0.6
v -4 1.4 0.6
v -4 1.4 -0.6
v -4 2.6 0.6
v -4 2.6 -0.6
v -3.4 0.8 0.6
v -3.4 0.8 -0.6
v -3.4 1.4 0.6
v -3.4 1.4 -0.6
v -1 11.6 0.6
v -1 11.6 -0.6
v -1 12.2 0.6
v -1 12.2 -0.6
v 0.2 12.2 0.6
v 0.2 12.2 -0.6
v 0.2 12.8 0.6
v 0.2 12.8 -0.6
v 2 10.4 1.2
v 2 10.4 0.6
v 2 10.4 -0.6
v 2 10.4 -1.2
v 2 11 1.2
v 2 11 0.6
v 2 11 -0.6
v 2 11 -1.2
v 2 11.6 0.6
v 2 11.6 -0.6
v 2 14.6 0.6
v 2 14.6 -0.6
v 2.6 10.4 0.6
v 2.6 10.4 -0.6
v 2.6 11 0.6
v 2.6 11 -0.6
v 3.2 -2.8 4.2
v 3.2 -2.8 3.6
v 3.2 -2.8 -3.6
v 3.2 -2.8 -4.2
v 3.2 0.8 4.2
v 3.2 0.8 3.6
v 3.2 5.6 4.2
v 3.2 5.6 3.6
v 3.2 6.2 4.2
v 3.2 6.2 3.6
v 3.2 9.8 4.2
v 3.2 9.8 3.6
v 3.2 9.8 1.8
v 3.2 9.8 -1.8
v 3.2 9.8 -3.6
v 3.2 9.8 -4.2
v 3.2 10.4 1.8
v 3.2 10.4 -1.8
v 3.8 -2.8 3.6
v 3.8 -2.8 3
v 3.8 -2.8 -3
v 3.8 -2.8 -3.6
v 3.8 9.8 3.6
v 3.8 9.8 3
v 3.8 9.8 -3
v 3.8 9.8 -3.6
v 4.4 -2.8 3
v 4.4 -2.8 2.4
v 4.4 -2.8 -2.4
v 4.4 -2.8 -3
v 4.4 9.8 3
v 4.4 9.8 2.4
v 4.4 9.8 -2.4
v 4.4 9.8 -3
v 5 -2.8 2.4
v 5 -2.8 1.8
v 5 -2.8 -1.8
v 5 -2.8 -2.4
v 5 9.8 2.4
v 5 9.8 1.8
v 5 9.8 -1.8
v 5 9.8 -2.4
v 5.6 -2.8 1.8
v 5.6 -2.8 -1.8
v 5.6 9.8 1.8
v 5.6 9.8 -1.8
v -0.4 -2.8 4.2
v -0.4 0.8 4.2
v -0.4 5.6 4.2
v -0.4 6.2 4.2
v -0.4 9.8 4.2
v 0.2 1.4 4.2
v 0.2 2 4.2
v 0.2 2.6 4.2
v 0.2 3.2 4.2
v 0.2 4.4 4.2
v 0.2 5 4.2
v 0.2 5.6 4.2
v 0.2 6.2 4.2
v 2 5.6 4.2
v 2 6.2 4.2
v 2.6 1.4 4.2
v 2.6 2 4.2
v 2.6 2.6 4.2
v 2.6 3.2 4.2
v 2.6 4.4 4.2
v 2.6 5 4.2
v 3.2 -2.8 4.2
v 3.2 0.8 4.2
v 3.2 5.6 4.2
v 3.2 6.2 4.2
v 3.2 9.8 4.2
v -1 -2.8 3.6
v -1 9.8 3.6
v -0.4 -2.8 3.6
v -0.4 0.8 3.6
v -0.4 5.6 3.6
v -0.4 6.2 3.6
v -0.4 9.8 3.6
v 3.2 -2.8 3.6
v 3.2 0.8 3.6
v 3.2 5.6 3.6
v 3.2 6.2 3.6
v 3.2 9.8 3.6
v 3.8 -2.8 3.6
v 3.8 9.8 3.6
v -1.6 -2.8 3
v -1.6 9.8 3
v -1 -2.8 3
v -1 9.8 3
v 3.8 -2.8 3
v 3.8 9.8 3
v 4.4 -2.8 3
v 4.4 9.8 3
v -2.2 -2.8 2.4
v -2.2 9.8 2.4
v -1.6 -2.8 2.4
v -1.6 9.8 2.4
v 4.4 -2.8 2.4
v 4.4 9.8 2.4
v 5 -2.8 2.4
v 5 9.8 2.4
v -2.8 -2.8 1.8
v -2.8 9.8 1.8
v -2.2 -2.8 1.8
v -2.2 9.8 1.8
v -0.4 9.8 1.8
v -0.4 10.4 1.8
v 3.2 9.8 1.8
v 3.2 10.4 1.8
v 5 -2.8 1.8
v 5 9.8 1.8
v 5.6 -2.8 1.8
v 5.6 9.8 1.8
v 0.8 10.4 1.2
v 0.8 11 1.2
v 2 10.4 1.2
v 2 11 1.2
v -6.4 3.2 0.6
v -6.4 7.4 0.6
v -5.8 2 0.6
v -5.8 3.2 0.6
v -5.8 7.4 0.6
v -5.8 8 0.6
v -5.2 0.8 0.6
v -5.2 2 0.6
v -5.2 3.8 0.6
v -5.2 6.8 0.6
v -4.6 0.2 0.6
v -4.6 0.8 0.6
v -4.6 2.6 0.6
v -4.6 3.8 0.6
v -4.6 6.8 0.6
v -4.6 7.4 0.6
v -4.6 8 0.6
v -4.6 8.6 0.6
v -4 -2.8 0.6
v -4 0.2 0.6
v -4 1.4 0.6
v -4 2.6 0.6
v -3.4 0.8 0.6
v -3.4 1.4 0.6
v -2.8 -2.8 0.6
v -2.8 0.8 0.6
v -2.8 7.4 0.6
v -2.8 8.6 0.6
v -2.8 11.6 0.6
v -2.8 12.2 0.6
v -2.8 14 0.6
v -2.8 14.6 0.6
v -1.6 12.2 0.6
v -1.6 12.8 0.6
v -1 11.6 0.6
v -1 12.2 0.6
v -0.4 12.8 0.6
v -0.4 13.4 0.6
v 0.2 10.4 0.6
v 0.2 11 0.6
v 0.2 12.2 0.6
v 0.2 12.8 0.6
v 0.8 10.4 0.6
v 0.8 11 0.6
v 0.8 11.6 0.6
v 0.8 12.8 0.6
v 0.8 13.4 0.6
v 0.8 14 0.6
v 2 10.4 0.6
v 2 11 0.6
v 2 11.6 0.6
v 2 14.6 0.6
v 2.6 10.4 0.6
v 2.6 11 0.6
v -6.4 3.2 -0.6
v -6.4 7.4 -0.6
v -5.8 2 -0.6
v -5.8 3.2 -0.6
v -5.8 7.4 -0.6
v -5.8 8 -0.6
v -5.2 0.8 -0.6
v -5.2 2 -0.6
v -5.2 3.8 -0.6
v -5.2 6.8 -0.6
v -4.6 0.2 -0.6
v -4.6 0.8 -0.6
v -4.6 2.6 -0.6
v -4.6 3.8 -0.6
v -4.6 6.8 -0.6
v -4.6 7.4 -0.6
v -4.6 8 -0.6
v -4.6 8.6 -0.6
v -4 -2.8 -0.6
v -4 0.2 -0.6
v -4 1.4 -0.6
v -4 2.6 -0.6
v -3.4 0.8 -0.6
v -3.4 1.4 -0.6
v -2.8 -2.8 -0.6
v -2.8 0.8 -0.6
v -2.8 7.4 -0.6
v -2.8 8.6 -0.6
v -2.8 11.6 -0.6
v -2.8 12.2 -0.6
v -2.8 14 -0.6
v -2.8 14.6 -0.6
v -1.6 12.2 -0.6
v -1.6 12.8 -0.6
v -1 11.6 -0.6
v -1 12.2 -0.6
v -0.4 12.8 -0.6
v -0.4 13.4 -0.6
v 0.2 10.4 -0.6
v 0.2 11 -0.6
v 0.2 12.2 -0.6
v 0.2 12.8 -0.6
v 0.8 10.4 -0.6
v 0.8 11 -0.6
v 0.8 11.6 -0.6
v 0.8 12.8 -0.6
v 0.8 13.4 -0.6
v 0.8 14 -0.6
v 2 10.4 -0.6
v 2 11 -0.6
v 2 11.6 -0.6
v 2 14.6 -0.6
v 2.6 10.4 -0.6
v 2.6 11 -0.6
v 0.8 10.4 -1.2
v 0.8 11 -1.2
v 2 10.4 -1.2
v 2 11 -1.2
v -2.8 -2.8 -1.8
v -2.8 9.8 -1.8
v -2.2 -2.8 -1.8
v -2.2 9.8 -1.8
v -0.4 9.8 -1.8
v -0.4 10.4 -1.8
v 3.2 9.8 -1.8
v 3.2 10.4 -1.8
v 5 -2.8 -1.8
v 5 9.8 -1.8
v 5.6 -2.8 -1.8
v 5.6 9.8 -1.8
v -2.2 -2.8 -2.4
v -2.2 9.8 -2.4
v -1.6 -2.8 -2.4
v -1.6 9.8 -2.4
v 4.4 -2.8 -2.4
v 4.4 9.8 -2.4
v 5 -2.8 -2.4
v 5 9.8 -2.4
v -1.6 -2.8 -3
v -1.6 9.8 -3
v -1 -2.8 -3
v -1 9.8 -3
v 3.8 -2.8 -3
v 3.8 9.8 -3
v 4.4 -2.8 -3
v 4.4 9.8 -3
v -1 -2.8 -3.6
v -1 9.8 -3.6
v -0.4 -2.8 -3.6
v -0.4 9.8 -3.6
v 3.2 -2.8 -3.6
v 3.2 9.8 -3.6
v 3.8 -2.8 -3.6
v 3.8 9.8 -3.6
v -0.4 -2.8 -4.2
v -0.4 9.8 -4.2
v 3.2 -2.8 -4.2
v 3.2 9.8 -4.2
v -0.4 -2.8 4.2
v 3.2 -2.8 4.2
v -1 -2.8 3.6
v -0.4 -2.8 3.6
v 3.2 -2.8 3.6
v 3.8 -2.8 3.6
v -1.6 -2.8 3
v -1 -2.8 3
v 3.8 -2.8 3
v 4.4 -2.8 3
v -2.2 -2.8 2.4
v -1.6 -2.8 2.4
v 4.4 -2.8 2.4
v 5 -2.8 2.4
v -2.8 -2.8 1.8
v -2.2 -2.8 1.8
v 5 -2.8 1.8
v 5.6 -2.8 1.8
v -4 -2.8 0.6
v -2.8 -2.8 0.6
v -4 -2.8 -0.6
v -2.8 -2.8 -0.6
v -2.8 -2.8 -1.8
v -2.2 -2.8 -1.8
v 5 -2.8 -1.8
v 5.6 -2.8 -1.8
v -2.2 -2.8 -2.4
v -1.6 -2.8 -2.4
v 4.4 -2.8 -2.4
v 5 -2.8 -2.4
v -1.6 -2.8 -3
v -1 -2.8 -3
v 3.8 -2.8 -3
v 4.4 -2.8 -3
v -1 -2.8 -3.6
v -0.4 -2.8 -3.6
v 3.2 -2.8 -3.6
v 3.8 -2.8 -3.6
v -0.4 -2.8 -4.2
v 3.2 -2.8 -4.2
v -4.6 0.2 0.6
v -4 0.2 0.6
v -4.6 0.2 -0.6
v -4 0.2 -0.6
v -5.2 0.8 0.6
v -4.6 0.8 0.6
v -5.2 0.8 -0.6
v -4.6 0.8 -0.6
v -5.8 2 0.6
v -5.2 2 0.6
v -5.8 2 -0.6
v -5.2 2 -0.6
v -6.4 3.2 0.6
v -5.8 3.2 0.6
v -6.4 3.2 -0.6
v -5.8 3.2 -0.6
v -5.2 6.8 0.6
v -4.6 6.8 0.6
v -5.2 6.8 -0.6
v -4.6 6.8 -0.6
v -4.6 7.4 0.6
v -2.8 7.4 0.6
v -4.6 7.4 -0.6
v -2.8 7.4 -0.6
v -2.8 11.6 0.6
v -1 11.6 0.6
v -2.8 11.6 -0.6
v -1 11.6 -0.6
v -1 12.2 0.6
v 0.2 12.2 0.6
v -1 12.2 -0.6
v 0.2 12.2 -0.6
v 0.2 12.8 0.6
v 0.8 12.8 0.6
v 0.2 12.8 -0.6
v 0.8 12.8 -0.6
v -2.8 14 0.6
v 0.8 14 0.6
v -2.8 14 -0.6
v 0.8 14 -0.6
v -3.4 0.8 0.6
v -2.8 0.8 0.6
v -3.4 0.8 -0.6
v -2.8 0.8 -0.6
v -4 1.4 0.6
v -3.4 1.4 0.6
v -4 1.4 -0.6
v -3.4 1.4 -0.6
v -4.6 2.6 0.6
v -4 2.6 0.6
v -4.6 2.6 -0.6
v -4 2.6 -0.6
v -5.2 3.8 0.6
v -4.6 3.8 0.6
v -5.2 3.8 -0.6
v -4.6 3.8 -0.6
v -6.4 7.4 0.6
v -5.8 7.4 0.6
v -6.4 7.4 -0.6
v -5.8 7.4 -0.6
v -5.8 8 0.6
v -4.6 8 0.6
v -5.8 8 -0.6
v -4.6 8 -0.6
v -4.6 8.6 0.6
v -2.8 8.6 0.6
v -4.6 8.6 -0.6
v -2.8 8.6 -0.6
v -0.4 9.8 4.2
v 3.2 9.8 4.2
v -1 9.8 3.6
v -0.4 9.8 3.6
v 3.2 9.8 3.6
v 3.8 9.8 3.6
v -1.6 9.8 3
v -1 9.8 3
v 3.8 9.8 3
v 4.4 9.8 3
v -2.2 9.8 2.4
v -1.6 9.8 2.4
v 4.4 9.8 2.4
v 5 9.8 2.4
v -2.8 9.8 1.8
v -2.2 9.8 1.8
v -0.4 9.8 1.8
v 3.2 9.8 1.8
v 5 9.8 1.8
v 5.6 9.8 1.8
v -2.8 9.8 -1.8
v -2.2 9.8 -1.8
v -0.4 9.8 -1.8
v 3.2 9.8 -1.8
v 5 9.8 -1.8
v 5.6 9.8 -1.8
v -2.2 9.8 -2.4
v -1.6 9.8 -2.4
v 4.4 9.8 -2.4
v 5 9.8 -2.4
v -1.6 9.8 -3
v -1 9.8 -3
v 3.8 9.8 -3
v 4.4 9.8 -3
v -1 9.8 -3.6
v -0.4 9.8 -3.6
v 3.2 9.8 -3.6
v 3.8 9.8 -3.6
v -0.4 9.8 -4.2
v 3.2 9.8 -4.2
v -0.4 10.4 1.8
v 3.2 10.4 1.8
v 0.8 10.4 1.2
v 2 10.4 1.2
v 0.2 10.4 0.6
v 0.8 10.4 0.6
v 2 10.4 0.6
v 2.6 10.4 0.6
v 0.2 10.4 -0.6
v 0.8 10.4 -0.6
v 2 10.4 -0.6
v 2.6 10.4 -0.6
v 0.8 10.4 -1.2
v 2 10.4 -1.2
v -0.4 10.4 -1.8
v 3.2 10.4 -1.8
v 0.8 11 1.2
v 2 11 1.2
v 0.2 11 0.6
v 0.8 11 0.6
v 2 11 0.6
v 2.6 11 0.6
v 0.2 11 -0.6
v 0.8 11 -0.6
v 2 11 -0.6
v 2.6 11 -0.6
v 0.8 11 -1.2
v 2 11 -1.2
v -2.8 12.2 0.6
v -1.6 12.2 0.6
v -2.8 12.2 -0.6
v -1.6 12.2 -0.6
v -1.6 12.8 0.6
v -0.4 12.8 0.6
v -1.6 12.8 -0.6
v -0.4 12.8 -0.6
v -0.4 13.4 0.6
v 0.8 13.4 0.6
v -0.4 13.4 -0.6
v 0.8 13.4 -0.6
v -2.8 14.6 0.6
v 2 14.6 0.6
v -2.8 14.6 -0.6
v 2 14.6 -0.6

# faces
f 3/4/1 2/4/1 1/4/1
f 4/4/1 2/4/1 3/4/1
f 7/4/1 6/4/1 5/4/1
f 8/4/1 6/4/1 7/4/1
f 11/4/1 10/4/1 9/4/1
f 12/4/1 10/4/1 11/4/1
f 15/4/1 14/4/1 13/4/1
f 16/4/1 14/4/1 15/4/1
f 19/4/1 18/4/1 17/4/1
f 20/4/1 18/4/1 19/4/1
f 23/4/1 22/4/1 21/4/1
f 24/4/1 22/4/1 23/4/1
f 27/4/1 26/4/1 25/4/1
f 28/4/1 26/4/1 27/4/1
f 33/2/1 30/2/1 29/2/1
f 34/2/1 32/2/1 31/2/1
f 35/2/1 33/2/1 29/2/1
f 35/2/1 34/2/1 33/2/1
f 36/2/1 32/2/1 34/2/1
f 36/2/1 34/2/1 35/2/1
f 37/2/1 35/2/1 29/2/1
f 38/2/1 32/2/1 36/2/1
f 39/2/1 37/2/1 29/2/1
f 39/2/1 38/2/1 37/2/1
f 40/2/1 32/2/1 38/2/1
f 40/2/1 38/2/1 39/2/1
f 43/4/1 42/4/1 41/4/1
f 44/4/1 42/4/1 43/4/1
f 47/4/1 46/4/1 45/4/1
f 48/4/1 46/4/1 47/4/1
f 53/2/1 50/2/1 49/2/1
f 54/2/1 50/2/1 53/2/1
f 55/2/1 52/2/1 51/2/1
f 56/2/1 52/2/1 55/2/1
f 61/2/1 58/2/1 57/2/1
f 62/2/1 58/2/1 61/2/1
f 63/2/1 60/2/1 59/2/1
f 64/2/1 60/2/1 63/2/1
f 67/4/1 66/4/1 65/4/1
f 68/4/1 66/4/1 67/4/1
f 73/2/1 70/2/1 69/2/1
f 74/2/1 70/2/1 73/2/1
f 75/2/1 72/2/1 71/2/1
f 76/2/1 72/2/1 75/2/1
f 81/2/1 78/2/1 77/2/1
f 82/2/1 78/2/1 81/2/1
f 83/1/1 82/1/1 81/1/1
f 84/1/1 82/1/1 83/1/1
f 85/4/1 84/4/1 83/4/1
f 86/4/1 84/4/1 85/4/1
f 87/2/1 86/2/1 85/2/1
f 88/2/1 86/2/1 87/2/1
f 91/2/1 80/2/1 79/2/1
f 92/2/1 80/2/1 91/2/1
f 93/4/1 90/4/1 89/4/1
f 94/4/1 90/4/1 93/4/1
f 97/4/1 96/4/1 95/4/1
f 98/4/1 96/4/1 97/4/1
f 101/3/1 100/3/1 99/3/1
f 102/3/1 100/3/1 101/3/1
f 107/3/1 104/3/1 103/3/1
f 108/3/1 104/3/1 107/3/1
f 109/3/1 106/3/1 105/3/1
f 110/3/1 106/3/1 109/3/1
f 111/3/1 109/3/1 108/3/1
f 112/3/1 109/3/1 111/3/1
f 113/4/1 112/4/1 111/4/1
f 114/4/1 112/4/1 113/4/1
f 117/4/1 116/4/1 115/4/1
f 118/4/1 116/4/1 117/4/1
f 119/4/2 120/4/2 121/4/2
f 121/4/2 120/4/2 122/4/2
f 123/4/2 124/4/2 125/4/2
f 125/4/2 124/4/2 126/4/2
f 127/4/2 128/4/2 129/4/2
f 129/4/2 128/4/2 130/4/2
f 131/4/2 132/4/2 133/4/2
f 133/4/2 132/4/2 134/4/2
f 135/4/2 136/4/2 137/4/2
f 137/4/2 136/4/2 138/4/2
f 139/4/2 140/4/2 141/4/2
f 141/4/2 140/4/2 142/4/2
f 143/4/2 144/4/2 145/4/2
f 145/4/2 144/4/2 146/4/2
f 147/3/2 148/3/2 151/3/2
f 151/3/2 148/3/2 152/3/2
f 149/3/2 150/3/2 153/3/2
f 153/3/2 150/3/2 154/3/2
f 152/3/2 153/3/2 155/3/2
f 155/3/2 153/3/2 156/3/2
f 155/4/2 156/4/2 157/4/2
f 157/4/2 156/4/2 158/4/2
f 159/3/2 160/3/2 161/3/2
f 161/3/2 160/3/2 162/3/2
f 163/2/2 164/2/2 167/2/2
f 167/2/2 164/2/2 168/2/2
f 167/1/2 168/1/2 169/1/2
f 169/1/2 168/1/2 170/1/2
f 169/4/2 170/4/2 171/4/2
f 171/4/2 170/4/2 172/4/2
f 171/2/2 172/2/2 173/2/2
f 173/2/2 172/2/2 174/2/2
f 165/2/2 166/2/2 177/2/2
f 177/2/2 166/2/2 178/2/2
f 175/4/2 176/4/2 179/4/2
f 179/4/2 176/4/2 180/4/2
f 181/2/2 182/2/2 185/2/2
f 185/2/2 182/2/2 186/2/2
f 183/2/2 184/2/2 187/2/2
f 187/2/2 184/2/2 188/2/2
f 189/2/2 190/2/2 193/2/2
f 193/2/2 190/2/2 194/2/2
f 191/2/2 192/2/2 195/2/2
f 195/2/2 192/2/2 196/2/2
f 197/2/2 198/2/2 201/2/2
f 201/2/2 198/2/2 202/2/2
f 199/2/2 200/2/2 203/2/2
f 203/2/2 200/2/2 204/2/2
f 205/2/2 206/2/2 207/2/2
f 207/2/2 206/2/2 208/2/2
f 214/1/3 211/1/3 210/1/3
f 215/1/3 211/1/3 214/1/3
f 216/1/3 211/1/3 215/1/3
f 217/1/3 211/1/3 216/1/3
f 218/1/3 211/1/3 217/1/3
f 219/1/3 211/1/3 218/1/3
f 220/4/3 212/4/3 211/4/3
f 220/1/3 211/1/3 219/1/3
f 221/2/3 213/2/3 212/2/3
f 221/4/3 212/4/3 220/4/3
f 222/1/3 220/1/3 219/1/3
f 222/1/3 221/1/3 220/1/3
f 223/2/3 213/2/3 221/2/3
f 223/1/3 221/1/3 222/1/3
f 224/1/3 214/1/3 210/1/3
f 224/4/3 215/4/3 214/4/3
f 225/1/3 216/1/3 215/1/3
f 225/4/3 215/4/3 224/4/3
f 226/4/3 217/4/3 216/4/3
f 226/1/3 216/1/3 225/1/3
f 227/1/3 218/1/3 217/1/3
f 227/4/3 217/4/3 226/4/3
f 228/4/3 219/4/3 218/4/3
f 228/1/3 218/1/3 227/1/3
f 229/1/3 222/1/3 219/1/3
f 229/4/3 219/4/3 228/4/3
f 230/2/3 210/2/3 209/2/3
f 231/1/3 228/1/3 227/1/3
f 231/2/3 210/2/3 230/2/3
f 231/1/3 227/1/3 226/1/3
f 231/1/3 229/1/3 228/1/3
f 231/1/3 226/1/3 225/1/3
f 231/1/3 225/1/3 224/1/3
f 231/1/3 224/1/3 210/1/3
f 232/1/3 222/1/3 229/1/3
f 232/1/3 229/1/3 231/1/3
f 232/4/3 223/4/3 222/4/3
f 233/2/3 213/2/3 223/2/3
f 233/4/3 223/4/3 232/4/3
f 234/2/3 213/2/3 233/2/3
f 237/2/3 236/2/3 235/2/3
f 238/2/3 236/2/3 237/2/3
f 239/2/3 236/2/3 238/2/3
f 240/2/3 236/2/3 239/2/3
f 241/2/3 236/2/3 240/2/3
f 247/2/3 243/2/3 242/2/3
f 247/2/3 246/2/3 245/2/3
f 247/2/3 245/2/3 244/2/3
f 247/2/3 244/2/3 243/2/3
f 248/2/3 246/2/3 247/2/3
f 251/2/3 250/2/3 249/2/3
f 252/2/3 250/2/3 251/2/3
f 255/2/3 254/2/3 253/2/3
f 256/2/3 254/2/3 255/2/3
f 259/2/3 258/2/3 257/2/3
f 260/2/3 258/2/3 259/2/3
f 263/2/3 262/2/3 261/2/3
f 264/2/3 262/2/3 263/2/3
f 267/2/3 266/2/3 265/2/3
f 268/2/3 266/2/3 267/2/3
f 271/4/3 270/4/3 269/4/3
f 272/4/3 270/4/3 271/4/3
f 275/2/3 274/2/3 273/2/3
f 276/2/3 274/2/3 275/2/3
f 279/3/3 278/3/3 277/3/3
f 280/3/3 278/3/3 279/3/3
f 284/4/3 282/4/3 281/4/3
f 285/4/3 282/4/3 284/4/3
f 288/4/3 284/4/3 283/4/3
f 288/4/3 286/4/3 285/4/3
f 288/4/3 285/4/3 284/4/3
f 289/4/3 286/4/3 288/4/3
f 290/4/3 286/4/3 289/4/3
f 292/4/3 288/4/3 287/4/3
f 292/4/3 289/4/3 288/4/3
f 293/4/3 289/4/3 292/4/3
f 294/4/3 289/4/3 293/4/3
f 295/4/3 286/4/3 290/4/3
f 296/4/3 286/4/3 295/4/3
f 297/4/3 286/4/3 296/4/3
f 300/4/3 292/4/3 291/4/3
f 300/4/3 293/4/3 292/4/3
f 301/4/3 293/4/3 300/4/3
f 302/4/3 293/4/3 301/4/3
f 303/4/3 300/4/3 299/4/3
f 303/4/3 301/4/3 300/4/3
f 304/4/3 301/4/3 303/4/3
f 305/4/3 303/4/3 299/4/3
f 306/4/3 303/4/3 305/4/3
f 307/4/3 298/4/3 297/4/3
f 307/4/3 297/4/3 296/4/3
f 308/4/3 298/4/3 307/4/3
f 313/4/3 310/4/3 309/4/3
f 315/4/3 313/4/3 309/4/3
f 315/4/3 314/4/3 313/4/3
f 316/4/3 314/4/3 315/4/3
f 317/4/3 314/4/3 316/4/3
f 321/4/3 317/4/3 316/4/3
f 321/4/3 318/4/3 317/4/3
f 322/4/3 318/4/3 321/4/3
f 323/3/3 320/3/3 319/3/3
f 324/3/3 320/3/3 323/3/3
f 326/4/3 318/4/3 322/4/3
f 327/4/3 318/4/3 326/4/3
f 328/4/3 312/4/3 311/4/3
f 330/3/3 325/3/3 324/3/3
f 331/4/3 327/4/3 326/4/3
f 331/4/3 328/4/3 327/4/3
f 331/3/3 325/3/3 330/3/3
f 331/4/3 326/4/3 325/4/3
f 332/4/3 312/4/3 328/4/3
f 332/4/3 328/4/3 331/4/3
f 333/3/3 330/3/3 329/3/3
f 334/3/3 330/3/3 333/3/3
f 335/4/4 336/4/4 338/4/4
f 338/4/4 336/4/4 339/4/4
f 337/4/4 338/4/4 342/4/4
f 339/4/4 340/4/4 342/4/4
f 338/4/4 339/4/4 342/4/4
f 342/4/4 340/4/4 343/4/4
f 343/4/4 340/4/4 344/4/4
f 341/4/4 342/4/4 346/4/4
f 342/4/4 343/4/4 346/4/4
f 346/4/4 343/4/4 347/4/4
f 347/4/4 343/4/4 348/4/4
f 344/4/4 340/4/4 349/4/4
f 349/4/4 340/4/4 350/4/4
f 350/4/4 340/4/4 351/4/4
f 345/4/4 346/4/4 354/4/4
f 346/4/4 347/4/4 354/4/4
f 354/4/4 347/4/4 355/4/4
f 355/4/4 347/4/4 356/4/4
f 353/4/4 354/4/4 357/4/4
f 354/4/4 355/4/4 357/4/4
f 357/4/4 355/4/4 358/4/4
f 353/4/4 357/4/4 359/4/4
f 359/4/4 357/4/4 360/4/4
f 351/4/4 352/4/4 361/4/4
f 350/4/4 351/4/4 361/4/4
f 361/4/4 352/4/4 362/4/4
f 363/4/4 364/4/4 367/4/4
f 363/4/4 367/4/4 369/4/4
f 367/4/4 368/4/4 369/4/4
f 369/4/4 368/4/4 370/4/4
f 370/4/4 368/4/4 371/4/4
f 370/4/4 371/4/4 375/4/4
f 371/4/4 372/4/4 375/4/4
f 375/4/4 372/4/4 376/4/4
f 373/3/4 374/3/4 377/3/4
f 377/3/4 374/3/4 378/3/4
f 376/4/4 372/4/4 380/4/4
f 380/4/4 372/4/4 381/4/4
f 365/4/4 366/4/4 382/4/4
f 378/3/4 379/3/4 384/3/4
f 380/4/4 381/4/4 385/4/4
f 381/4/4 382/4/4 385/4/4
f 384/3/4 379/3/4 385/3/4
f 379/4/4 380/4/4 385/4/4
f 382/4/4 366/4/4 386/4/4
f 385/4/4 382/4/4 386/4/4
f 383/3/4 384/3/4 387/3/4
f 387/3/4 384/3/4 388/3/4
f 389/3/4 390/3/4 391/3/4
f 391/3/4 390/3/4 392/3/4
f 393/2/4 394/2/4 395/2/4
f 395/2/4 394/2/4 396/2/4
f 397/4/4 398/4/4 399/4/4
f 399/4/4 398/4/4 400/4/4
f 401/2/4 402/2/4 403/2/4
f 403/2/4 402/2/4 404/2/4
f 405/2/4 406/2/4 407/2/4
f 407/2/4 406/2/4 408/2/4
f 409/2/4 410/2/4 411/2/4
f 411/2/4 410/2/4 412/2/4
f 413/2/4 414/2/4 415/2/4
f 415/2/4 414/2/4 416/2/4
f 417/2/4 418/2/4 419/2/4
f 419/2/4 418/2/4 420/2/4
f 421/2/4 422/2/4 423/2/4
f 423/2/4 422/2/4 424/2/4
f 425/2/4 426/2/4 427/2/4
f 427/2/4 426/2/4 428/2/4
f 429/2/4 430/2/4 431/2/4
f 431/2/4 430/2/4 432/2/4
f 436/2/5 434/2/5 433/2/5
f 437/2/5 434/2/5 436/2/5
f 440/2/5 436/2/5 435/2/5
f 440/2/5 438/2/5 437/2/5
f 440/2/5 437/2/5 436/2/5
f 441/2/5 438/2/5 440/2/5
f 444/2/5 440/2/5 439/2/5
f 444/2/5 442/2/5 441/2/5
f 444/2/5 441/2/5 440/2/5
f 445/2/5 442/2/5 444/2/5
f 448/2/5 444/2/5 443/2/5
f 448/2/5 446/2/5 445/2/5
f 448/2/5 445/2/5 444/2/5
f 449/2/5 446/2/5 448/2/5
f 452/2/5 448/2/5 447/2/5
f 452/2/5 450/2/5 449/2/5
f 452/2/5 449/2/5 448/2/5
f 453/4/5 452/4/5 451/4/5
f 454/2/5 450/2/5 452/2/5
f 454/4/5 452/4/5 453/4/5
f 455/2/5 450/2/5 454/2/5
f 456/2/5 450/2/5 455/2/5
f 457/2/5 450/2/5 456/2/5
f 458/2/5 450/2/5 457/2/5
f 459/2/5 457/2/5 456/2/5
f 460/2/5 457/2/5 459/2/5
f 461/2/5 457/2/5 460/2/5
f 462/2/5 457/2/5 461/2/5
f 463/2/5 461/2/5 460/2/5
f 464/2/5 461/2/5 463/2/5
f 465/2/5 461/2/5 464/2/5
f 466/2/5 461/2/5 465/2/5
f 467/2/5 465/2/5 464/2/5
f 468/2/5 465/2/5 467/2/5
f 469/2/5 465/2/5 468/2/5
f 470/2/5 465/2/5 469/2/5
f 471/2/5 469/2/5 468/2/5
f 472/2/5 469/2/5 471/2/5
f 475/4/5 474/4/5 473/4/5
f 476/4/5 474/4/5 475/4/5
f 479/4/5 478/4/5 477/4/5
f 480/4/5 478/4/5 479/4/5
f 483/4/5 482/4/5 481/4/5
f 484/4/5 482/4/5 483/4/5
f 487/4/5 486/4/5 485/4/5
f 488/4/5 486/4/5 487/4/5
f 491/4/5 490/4/5 489/4/5
f 492/4/5 490/4/5 491/4/5
f 495/4/5 494/4/5 493/4/5
f 496/4/5 494/4/5 495/4/5
f 499/4/5 498/4/5 497/4/5
f 500/4/5 498/4/5 499/4/5
f 503/4/5 502/4/5 501/4/5
f 504/4/5 502/4/5 503/4/5
f 507/4/5 506/4/5 505/4/5
f 508/4/5 506/4/5 507/4/5
f 511/4/5 510/4/5 509/4/5
f 512/4/5 510/4/5 511/4/5
f 513/4/6 514/4/6 515/4/6
f 515/4/6 514/4/6 516/4/6
f 517/4/6 518/4/6 519/4/6
f 519/4/6 518/4/6 520/4/6
f 521/4/6 522/4/6 523/4/6
f 523/4/6 522/4/6 524/4/6
f 525/4/6 526/4/6 527/4/6
f 527/4/6 526/4/6 528/4/6
f 529/4/6 530/4/6 531/4/6
f 531/4/6 530/4/6 532/4/6
f 533/4/6 534/4/6 535/4/6
f 535/4/6 534/4/6 536/4/6
f 537/4/6 538/4/6 539/4/6
f 539/4/6 538/4/6 540/4/6
f 541/2/6 542/2/6 544/2/6
f 544/2/6 542/2/6 545/2/6
f 543/2/6 544/2/6 548/2/6
f 545/2/6 546/2/6 548/2/6
f 544/2/6 545/2/6 548/2/6
f 548/2/6 546/2/6 549/2/6
f 547/2/6 548/2/6 552/2/6
f 549/2/6 550/2/6 552/2/6
f 548/2/6 549/2/6 552/2/6
f 552/2/6 550/2/6 553/2/6
f 551/2/6 552/2/6 556/2/6
f 553/2/6 554/2/6 556/2/6
f 552/2/6 553/2/6 556/2/6
f 556/2/6 554/2/6 557/2/6
f 557/2/6 554/2/6 558/2/6
f 558/2/6 554/2/6 559/2/6
f 555/2/6 556/2/6 561/2/6
f 556/2/6 557/2/6 561/2/6
f 561/2/6 557/2/6 562/2/6
f 562/2/6 557/2/6 563/2/6
f 559/2/6 560/2/6 564/2/6
f 558/2/6 559/2/6 564/2/6
f 564/2/6 560/2/6 565/2/6
f 565/2/6 560/2/6 566/2/6
f 562/2/6 563/2/6 567/2/6
f 564/2/6 565/2/6 567/2/6
f 563/2/6 564/2/6 567/2/6
f 567/2/6 565/2/6 568/2/6
f 568/2/6 565/2/6 569/2/6
f 569/2/6 565/2/6 570/2/6
f 568/2/6 569/2/6 571/2/6
f 571/2/6 569/2/6 572/2/6
f 572/2/6 569/2/6 573/2/6
f 573/2/6 569/2/6 574/2/6
f 572/2/6 573/2/6 575/2/6
f 575/2/6 573/2/6 576/2/6
f 576/2/6 573/2/6 577/2/6
f 577/2/6 573/2/6 578/2/6
f 576/2/6 577/2/6 579/2/6
f 579/2/6 577/2/6 580/2/6
f 581/4/6 582/4/6 583/4/6
f 583/4/6 582/4/6 584/4/6
f 581/4/6 583/4/6 585/4/6
f 585/4/6 583/4/6 586/4/6
f 584/4/6 582/4/6 587/4/6
f 587/4/6 582/4/6 588/4/6
f 581/4/6 585/4/6 589/4/6
f 588/4/6 582/4/6 592/4/6
f 589/4/6 590/4/6 593/4/6
f 591/4/6 592/4/6 594/4/6
f 589/4/6 593/4/6 595/4/6
f 593/4/6 594/4/6 595/4/6
f 581/4/6 589/4/6 595/4/6
f 594/4/6 592/4/6 596/4/6
f 595/4/6 594/4/6 596/4/6
f 592/4/6 582/4/6 596/4/6
f 597/3/6 598/3/6 600/3/6
f 600/3/6 598/3/6 601/3/6
f 599/3/6 600/3/6 603/3/6
f 603/3/6 600/3/6 604/3/6
f 601/3/6 602/3/6 605/3/6
f 605/3/6 602/3/6 606/3/6
f 604/3/6 605/3/6 607/3/6
f 607/3/6 605/3/6 608/3/6
f 609/4/6 610/4/6 611/4/6
f 611/4/6 610/4/6 612/4/6
f 613/4/6 614/4/6 615/4/6
f 615/4/6 614/4/6 616/4/6
f 617/4/6 618/4/6 619/4/6
f 619/4/6 618/4/6 620/4/6
f 621/4/6 622/4/6 623/4/6
f 623/4/6 622/4/6 624/4/6
