# MagicaVoxel @ Ephtracy

# group
o 

# material
mtllib Mesa.mtl
usemtl palette

# normals
vn -1 0 0
vn 1 0 0
vn 0 0 1
vn 0 0 -1
vn 0 -1 0
vn 0 1 0

# texcoords
vt 0.205078 0.5
vt 0.373047 0.5
vt 0.982422 0.5

# verts
v -8.8 -2.8 8.8
v -8.8 -2.8 6.8
v -8.8 -2.8 -6.8
v -8.8 -2.8 -8.8
v -8.8 -2 8.8
v -8.8 -2 6.8
v -8.8 -2 -6.8
v -8.8 -2 -8.8
v -8.8 12.8 6.8
v -8.8 12.8 -6.8
v -8.8 14.8 8.8
v -8.8 14.8 -8.8
v 6.8 -2.8 8.8
v 6.8 -2.8 6.8
v 6.8 -2.8 -6.8
v 6.8 -2.8 -8.8
v 6.8 -2 8.8
v 6.8 -2 6.8
v 6.8 -2 -6.8
v 6.8 -2 -8.8
v 6.8 12.8 8.8
v 6.8 12.8 6.8
v 6.8 12.8 -6.8
v 6.8 12.8 -8.8
v -6.8 -2.8 8.8
v -6.8 -2.8 6.8
v -6.8 -2.8 -6.8
v -6.8 -2.8 -8.8
v -6.8 -2 8.8
v -6.8 -2 6.8
v -6.8 -2 -6.8
v -6.8 -2 -8.8
v -6.8 12.8 8.8
v -6.8 12.8 6.8
v -6.8 12.8 -6.8
v -6.8 12.8 -8.8
v 8.8 -2.8 8.8
v 8.8 -2.8 6.8
v 8.8 -2.8 -6.8
v 8.8 -2.8 -8.8
v 8.8 -2 8.8
v 8.8 -2 6.8
v 8.8 -2 -6.8
v 8.8 -2 -8.8
v 8.8 12.8 6.8
v 8.8 12.8 -6.8
v 8.8 14.8 8.8
v 8.8 14.8 -8.8
v -8.8 -2.8 8.8
v -8.8 -2 8.8
v -8.8 14.8 8.8
v -6.8 -2.8 8.8
v -6.8 -2 8.8
v -6.8 12.8 8.8
v 6.8 -2.8 8.8
v 6.8 -2 8.8
v 6.8 12.8 8.8
v 8.8 -2.8 8.8
v 8.8 -2 8.8
v 8.8 14.8 8.8
v -8.8 -2.8 -6.8
v -8.8 -2 -6.8
v -8.8 12.8 -6.8
v -6.8 -2.8 -6.8
v -6.8 -2 -6.8
v -6.8 12.8 -6.8
v 6.8 -2.8 -6.8
v 6.8 -2 -6.8
v 6.8 12.8 -6.8
v 8.8 -2.8 -6.8
v 8.8 -2 -6.8
v 8.8 12.8 -6.8
v -8.8 -2.8 6.8
v -8.8 -2 6.8
v -8.8 12.8 6.8
v -6.8 -2.8 6.8
v -6.8 -2 6.8
v -6.8 12.8 6.8
v 6.8 -2.8 6.8
v 6.8 -2 6.8
v 6.8 12.8 6.8
v 8.8 -2.8 6.8
v 8.8 -2 6.8
v 8.8 12.8 6.8
v -8.8 -2.8 -8.8
v -8.8 -2 -8.8
v -8.8 14.8 -8.8
v -6.8 -2.8 -8.8
v -6.8 -2 -8.8
v -6.8 12.8 -8.8
v 6.8 -2.8 -8.8
v 6.8 -2 -8.8
v 6.8 12.8 -8.8
v 8.8 -2.8 -8.8
v 8.8 -2 -8.8
v 8.8 14.8 -8.8
v -8.8 -2.8 8.8
v -6.8 -2.8 8.8
v 6.8 -2.8 8.8
v 8.8 -2.8 8.8
v -8.8 -2.8 6.8
v -6.8 -2.8 6.8
v 6.8 -2.8 6.8
v 8.8 -2.8 6.8
v -8.8 -2.8 -6.8
v -6.8 -2.8 -6.8
v 6.8 -2.8 -6.8
v 8.8 -2.8 -6.8
v -8.8 -2.8 -8.8
v -6.8 -2.8 -8.8
v 6.8 -2.8 -8.8
v 8.8 -2.8 -8.8
v -6.8 12.8 8.8
v 6.8 12.8 8.8
v -8.8 12.8 6.8
v -6.8 12.8 6.8
v 6.8 12.8 6.8
v 8.8 12.8 6.8
v -8.8 12.8 -6.8
v -6.8 12.8 -6.8
v 6.8 12.8 -6.8
v 8.8 12.8 -6.8
v -6.8 12.8 -8.8
v 6.8 12.8 -8.8
v -8.8 14.8 8.8
v 8.8 14.8 8.8
v -8.8 14.8 -8.8
v 8.8 14.8 -8.8

# faces
f 5/3/1 2/3/1 1/3/1
f 6/3/1 2/3/1 5/3/1
f 7/3/1 4/3/1 3/3/1
f 8/3/1 4/3/1 7/3/1
f 9/1/1 6/1/1 5/1/1
f 10/1/1 8/1/1 7/1/1
f 11/1/1 9/1/1 5/1/1
f 11/1/1 10/1/1 9/1/1
f 12/1/1 8/1/1 10/1/1
f 12/1/1 10/1/1 11/1/1
f 17/3/1 14/3/1 13/3/1
f 18/3/1 14/3/1 17/3/1
f 19/3/1 16/3/1 15/3/1
f 20/3/1 16/3/1 19/3/1
f 21/1/1 18/1/1 17/1/1
f 22/1/1 18/1/1 21/1/1
f 23/1/1 20/1/1 19/1/1
f 24/1/1 20/1/1 23/1/1
f 25/3/2 26/3/2 29/3/2
f 29/3/2 26/3/2 30/3/2
f 27/3/2 28/3/2 31/3/2
f 31/3/2 28/3/2 32/3/2
f 29/1/2 30/1/2 33/1/2
f 33/1/2 30/1/2 34/1/2
f 31/1/2 32/1/2 35/1/2
f 35/1/2 32/1/2 36/1/2
f 37/3/2 38/3/2 41/3/2
f 41/3/2 38/3/2 42/3/2
f 39/3/2 40/3/2 43/3/2
f 43/3/2 40/3/2 44/3/2
f 41/1/2 42/1/2 45/1/2
f 43/1/2 44/1/2 46/1/2
f 41/1/2 45/1/2 47/1/2
f 45/1/2 46/1/2 47/1/2
f 46/1/2 44/1/2 48/1/2
f 47/1/2 46/1/2 48/1/2
f 52/3/3 50/3/3 49/3/3
f 53/1/3 51/1/3 50/1/3
f 53/3/3 50/3/3 52/3/3
f 54/1/3 51/1/3 53/1/3
f 57/1/3 51/1/3 54/1/3
f 58/3/3 56/3/3 55/3/3
f 59/1/3 57/1/3 56/1/3
f 59/3/3 56/3/3 58/3/3
f 60/1/3 51/1/3 57/1/3
f 60/1/3 57/1/3 59/1/3
f 64/3/3 62/3/3 61/3/3
f 65/1/3 63/1/3 62/1/3
f 65/3/3 62/3/3 64/3/3
f 66/1/3 63/1/3 65/1/3
f 70/3/3 68/3/3 67/3/3
f 71/1/3 69/1/3 68/1/3
f 71/3/3 68/3/3 70/3/3
f 72/1/3 69/1/3 71/1/3
f 73/3/4 74/3/4 76/3/4
f 74/1/4 75/1/4 77/1/4
f 76/3/4 74/3/4 77/3/4
f 77/1/4 75/1/4 78/1/4
f 79/3/4 80/3/4 82/3/4
f 80/1/4 81/1/4 83/1/4
f 82/3/4 80/3/4 83/3/4
f 83/1/4 81/1/4 84/1/4
f 85/3/4 86/3/4 88/3/4
f 86/1/4 87/1/4 89/1/4
f 88/3/4 86/3/4 89/3/4
f 89/1/4 87/1/4 90/1/4
f 90/1/4 87/1/4 93/1/4
f 91/3/4 92/3/4 94/3/4
f 92/1/4 93/1/4 95/1/4
f 94/3/4 92/3/4 95/3/4
f 93/1/4 87/1/4 96/1/4
f 95/1/4 93/1/4 96/1/4
f 101/3/5 98/3/5 97/3/5
f 102/3/5 98/3/5 101/3/5
f 103/3/5 100/3/5 99/3/5
f 104/3/5 100/3/5 103/3/5
f 109/3/5 106/3/5 105/3/5
f 110/3/5 106/3/5 109/3/5
f 111/3/5 108/3/5 107/3/5
f 112/3/5 108/3/5 111/3/5
f 116/1/5 114/1/5 113/1/5
f 117/1/5 114/1/5 116/1/5
f 119/1/5 116/1/5 115/1/5
f 119/1/5 118/1/5 117/1/5
f 119/1/5 117/1/5 116/1/5
f 120/1/5 118/1/5 119/1/5
f 121/1/5 118/1/5 120/1/5
f 122/1/5 118/1/5 121/1/5
f 123/1/5 121/1/5 120/1/5
f 124/1/5 121/1/5 123/1/5
f 125/1/6 126/1/6 127/1/6
f 127/1/6 126/1/6 128/1/6
