# MagicaVoxel @ Ephtracy

# group
o 

# material
mtllib Papelera.mtl
usemtl palette

# normals
vn -1 0 0
vn 1 0 0
vn 0 0 1
vn 0 0 -1
vn 0 -1 0
vn 0 1 0

# texcoords
vt 0.205078 0.5
vt 0.373047 0.5
vt 0.978516 0.5
vt 0.982422 0.5

# verts
v -8.8 -2.8 8.8
v -8.8 -2.8 -8.8
v -8.8 14.8 8.8
v -8.8 14.8 -8.8
v 7.5 4 7.3
v 7.5 4 -7.3
v 7.5 14.8 7.3
v 7.5 14.8 -7.3
v -7.5 4 7.3
v -7.5 4 -7.3
v -7.5 14.8 7.3
v -7.5 14.8 -7.3
v 8.8 -2.8 8.8
v 8.8 -2.8 -8.8
v 8.8 14.8 8.8
v 8.8 14.8 -8.8
v -8.8 -2.8 8.8
v -8.8 14.8 8.8
v 8.8 -2.8 8.8
v 8.8 14.8 8.8
v -7.5 4 -7.3
v -7.5 14.8 -7.3
v 7.5 4 -7.3
v 7.5 14.8 -7.3
v -7.5 4 7.3
v -7.5 14.8 7.3
v 7.5 4 7.3
v 7.5 14.8 7.3
v -8.8 -2.8 -8.8
v -8.8 14.8 -8.8
v 8.8 -2.8 -8.8
v 8.8 14.8 -8.8
v -8.8 -2.8 8.8
v 8.8 -2.8 8.8
v -8.8 -2.8 -8.8
v 8.8 -2.8 -8.8
v -7.5 4 7.3
v 7.5 4 7.3
v -7.5 4 -7.3
v 7.5 4 -7.3
v -8.8 14.8 8.8
v 8.8 14.8 8.8
v -7.5 14.8 7.3
v 7.5 14.8 7.3
v -7.5 14.8 -7.3
v 7.5 14.8 -7.3
v -8.8 14.8 -8.8
v 8.8 14.8 -8.8

# faces
f 3/4/1 2/4/1 1/4/1
f 4/4/1 2/4/1 3/4/1
f 7/4/1 6/4/1 5/4/1
f 8/4/1 6/4/1 7/4/1
f 9/4/2 10/4/2 11/4/2
f 11/4/2 10/4/2 12/4/2
f 13/4/2 14/4/2 15/4/2
f 15/4/2 14/4/2 16/4/2
f 19/4/3 18/4/3 17/4/3
f 20/4/3 18/4/3 19/4/3
f 23/4/3 22/4/3 21/4/3
f 24/4/3 22/4/3 23/4/3
f 25/4/4 26/4/4 27/4/4
f 27/4/4 26/4/4 28/4/4
f 29/4/4 30/4/4 31/4/4
f 31/4/4 30/4/4 32/4/4
f 35/4/5 34/4/5 33/4/5
f 36/4/5 34/4/5 35/4/5
f 37/3/6 38/3/6 39/3/6
f 39/3/6 38/3/6 40/3/6
f 41/4/6 42/4/6 43/4/6
f 43/4/6 42/4/6 44/4/6
f 41/4/6 43/4/6 45/4/6
f 44/4/6 42/4/6 46/4/6
f 41/4/6 45/4/6 47/4/6
f 45/4/6 46/4/6 47/4/6
f 46/4/6 42/4/6 48/4/6
f 47/4/6 46/4/6 48/4/6
